<?xml version="1.0" encoding="utf-8"?>
<!-- Generator: Adobe Illustrator 28.0.0, SVG Export Plug-In . SVG Version: 6.00 Build 0)  -->
<svg version="1.1" id="레이어_1" xmlns="http://www.w3.org/2000/svg" xmlns:xlink="http://www.w3.org/1999/xlink" x="0px"
	 y="0px" width="56.6929131px" height="39.6850395px" viewBox="0 0 56.6929131 39.6850395"
	 style="enable-background:new 0 0 56.6929131 39.6850395;" xml:space="preserve">
<style type="text/css">
	.st0{fill:#00344D;}
</style>
<g>
	<g>
		<g>
			<polygon class="st0" points="1.6546317,17.3500214 5.2865796,17.3496113 5.2863221,15.8001013 1.6544255,15.8005123 
				1.6540645,13.0727119 5.4156909,13.0723066 5.4155312,11.5228491 0,11.5234642 0.0013459,22.2891674 1.6551474,22.2890129 			"/>
			<path class="st0" d="M13.9657726,21.1334248c0.8268261-0.9039402,1.0050917-1.9369068,1.0049314-2.7924385L14.9698792,11.41677
				l-1.6538582,0.000205l0.0008249,6.4885063c0.0000563,0.5810204-0.0160923,1.2912312-0.3402729,1.8561401
				c-0.3242264,0.5488338-1.0538788,1.1138954-2.0104294,1.1139469c-0.9565964,0.0001488-1.6863527-0.5646572-2.0106869-1.1134338
				c-0.3243351-0.5649071-0.3406334-1.2750683-0.3406849-1.8560886l-0.0008249-6.4885063l-1.6538072,0.000205l0.0008249,6.9242277
				c0.0001035,0.8554707,0.1786208,1.8884888,1.0056019,2.7922211c0.5675368,0.6132755,1.5242934,1.2587891,2.999784,1.2585373
				C12.4417419,22.3925762,13.3983965,21.7468529,13.9657726,21.1334248z"/>
			<path class="st0" d="M23.4550858,19.0340042c-0.0001545-1.2266521-0.551548-2.3564072-2.5459881-3.16325l-1.0864239-0.4356241
				c-1.053936-0.4194965-1.1675625-0.9843435-1.1675625-1.3072062c-0.000103-0.6940384,0.5187378-1.2912941,1.5239277-1.2914019
				c0.4703064-0.0000973,0.8269291,0.112916,1.1674595,0.3872576c0.243248,0.2096949,0.3892193,0.4356651,0.4865589,0.6778145
				l1.3294144-0.7748594c-0.2270069-0.451952-0.5351906-0.8231239-0.8269806-1.0813437
				c-0.3405819-0.2905102-1.005394-0.7262316-2.172802-0.726078c-2.0267811,0.0002575-3.1615906,1.3884888-3.1613846,2.8411121
				c0.000206,1.6140537,1.3135853,2.3564072,2.205452,2.7274876l1.037735,0.4356136
				c0.7134571,0.290514,1.5566845,0.7423534,1.556736,1.8398132c0.0001545,1.0813942-0.7780323,1.8078327-1.783268,1.8079853
				c-0.6486225,0.0000515-1.1026306-0.258112-1.4107704-0.6454678c-0.2594948-0.338932-0.4541054-0.8392448-0.4541569-1.3719044
				l-1.6375599,0.3552608c0.0649376,0.7425137,0.3244896,1.4526749,0.9082165,2.0981922
				c0.5513935,0.6133175,1.297287,1.0812359,2.5457859,1.0810776
				C21.9961987,22.4882832,23.4553432,21.0839291,23.4550858,19.0340042z"/>
			<rect x="24.9994621" y="11.520359" class="st0" width="1.6538326" height="10.7657251"/>
			<path class="st0" d="M45.8385925,4.3456936l0.0011864,2.2629089l0.0020599,3.839427l-1.9381142-2.0185528l-1.1421242-1.1899376
				l-4.7723846-4.9700089l0.005619,9.4531069l-0.5636139,0.6769314c-2.1750145-1.8079243-5.2371101-1.7612514-7.410635,0.2830267
				c-2.3572025,2.2168989-2.4194069,5.6061296-0.2369061,7.9056921c2.1824455,2.2995148,5.585228,2.429985,7.9423752,0.2131386
				c2.1985397-2.0677929,2.3998146-5.1552668,0.6460381-7.4273119l1.2770653-0.9433689l-0.0011368-2.2629089l-0.0023193-3.9282551
				l1.9828339,2.0656357l1.1426544,1.189373l4.7271881,4.9235926l-0.0059814-9.3639193L50.3531761,0L45.8385925,4.3456936z
				 M36.6793938,19.6985703c-1.6853714,1.5850391-4.0456123,1.4954872-5.693594-0.2409172
				c-1.6479244-1.7364082-1.6038227-4.0872211,0.0814476-5.6722031c1.558794-1.4660244,3.6937962-1.4964209,5.3096828-0.1194296
				l-2.5554733,3.0694437l3.2242584-2.3816767C38.3969116,16.0493851,38.2609367,18.2110863,36.6793938,19.6985703z"/>
			<path class="st0" d="M20.9010086,25.1627274c-0.8634033,0.8138275-1.6496868,2.118679-1.6495266,4.0068588
				c0.0002003,1.4429264,0.4475517,2.7477207,1.6505585,3.868187c0.6014175,0.5679359,1.7735691,1.412056,3.6394749,1.41185
				c0.709322-0.0000992,1.7887917-0.1536789,2.8219833-0.7679253l-0.0002575-1.8574791
				c-0.5859489,0.5528412-1.5420265,1.1822853-2.7756195,1.1824341c-2.1897659,0.0002594-3.7629051-1.6728401-3.7632141-3.8371601
				c-0.0002575-2.2566986,1.5108261-3.8994541,3.7468128-3.8996601c0.5860004-0.0001011,1.650095,0.107214,2.7913494,1.1356182
				l-0.000206-1.8421345c-0.8945007-0.5678349-1.8043671-0.7366047-2.7450256-0.7365017
				C23.1986275,23.8269672,21.9649925,24.164875,20.9010086,25.1627274z"/>
			<path class="st0" d="M33.8741226,23.8256855c-3.0841713,0.0003529-5.35075,2.303318-5.3504391,5.3119698
				c0.0004177,3.00881,2.2675571,5.3112011,5.3517323,5.3108387c3.0842133-0.0003586,5.3507385-2.3032608,5.3503838-5.3120708
				C39.2254333,26.1277218,36.9583435,23.825325,33.8741226,23.8256855z M33.8752556,33.0054779
				c-2.2051983,0.0003052-3.7782803-1.5960293-3.7785378-3.8679771c-0.000309-2.2718391,1.5723591-3.8685398,3.7776108-3.8688488
				c2.205143-0.0002556,3.7782249,1.5960846,3.7785339,3.8679771
				C37.6531258,31.4085255,36.0803986,33.0052719,33.8752556,33.0054779z"/>
			<polygon class="st0" points="51.0180931,34.4464417 56.6929131,34.4457245 56.6927605,32.9720497 52.5908127,32.9725647 
				52.5904007,29.7488766 56.5689621,29.748415 56.5688095,28.2747421 52.5902481,28.2752037 52.5899353,25.6809578 
				56.6918297,25.6804447 56.6916771,24.2067738 51.0168571,24.2074413 			"/>
			<g>
				<path class="st0" d="M49.999752,34.9582062c-0.0140839,0.0279312-0.0445671,0.032444-0.0911942,0.013916
					c-1.2443161-0.4468613-2.2943802-1.1146698-3.1503487-2.0039749c-0.8561249-0.8890495-1.6398811-2.1439381-2.3508568-3.7641563
					l-0.8418884-0.0278244c-0.0469894-0.0091476-0.0701942-0.0255775-0.0701942-0.0489311
					c0-0.023056,0.0232048-0.0394859,0.0701942-0.0487823l0.5191002-0.0141258
					c0.795002-0.0650978,1.3821907-0.3235245,1.7609406-0.7754135c0.3787994-0.4515877,0.5681534-1.0546932,0.5681-1.8088589
					c-0.000103-0.7635098-0.1945076-1.3199959-0.5825424-1.6692047c-0.3883438-0.3491993-0.9893532-0.5328083-1.8031731-0.551548
					l-0.6173668-0.0278301c-0.1778488,0-0.3017921,0.0372734-0.3718414,0.1117764
					c-0.0701485,0.0747585-0.1052208,0.2095966-0.1051674,0.4051208l0.000927,7.7104244
					c0.0000496,0.5121803,0.0864983,0.8752975,0.2596512,1.0893555c0.1730537,0.2143707,0.4232635,0.3306694,0.7507515,0.3491516
					c0.0561638,0.009346,0.0842247,0.0303955,0.0841751,0.0628433c0.0000496,0.032608-0.0280113,0.0489349-0.0841751,0.0489349
					c-0.3647308-0.0278244-0.6361923-0.04179-0.8138351-0.04179l-2.1327744,0.0002022
					c-0.1778488,0.0000534-0.4491081,0.014122-0.8138771,0.0420494c-0.0561218,0-0.0841827-0.0162773-0.0841293-0.0489311
					c-0.0000534-0.0323982,0.0279579-0.0534973,0.0841293-0.0628471c0.3272705-0.0185852,0.5774918-0.1349335,0.7506866-0.3493042
					c0.172905-0.2141075,0.259449-0.5772781,0.2593994-1.0894547l-0.000824-6.7605839
					c-0.0000496-0.5120201-0.0867577-0.8751373-0.2597084-1.0895042c-0.1732025-0.2140617-0.4234657-0.3303089-0.7507477-0.3492031
					c-0.0655479,0.0000515-0.0960388-0.0160198-0.0911903-0.0487823c0.0046463-0.0325508,0.0350266-0.0489292,0.0911903-0.0489292
					c0.2430992,0.018837,0.5143051,0.0278797,0.8138885,0.0278282c0.2617111-0.0000496,0.5542183-0.007082,0.8769035-0.020998
					c0.3227882-0.0140686,0.5635109-0.0209503,0.7226868-0.0209503c0.8230057-0.0187397,1.4172096-0.0282421,1.7820816-0.0282936
					c1.3750687-0.0002556,2.382946,0.2000465,3.0239258,0.6003361c0.6406212,0.4002895,0.9612427,1.0242977,0.9613457,1.8715496
					c0.000103,0.6984577-0.2828636,1.273531-0.8486938,1.7251682c-0.56604,0.4518909-1.3634644,0.7289009-2.3922729,0.8314381
					c0.4115105,0.0186386,0.7857666-0.0000553,1.1224785-0.0560703l0.0280609-0.0000515
					c0.0561142,0,0.1027985,0.0419502,0.1403465,0.1257992c0.3460999,1.2758923,0.832756,2.4350166,1.4597702,3.4778996
					c0.6266937,1.0428314,1.319149,1.7689095,2.0769081,2.1786995C49.9973259,34.9022369,50.0137825,34.930172,49.999752,34.9582062
					z"/>
			</g>
		</g>
		<g>
			<g>
				<path class="st0" d="M24.401268,37.6416283c-0.1006851,0.0509415-0.1826992,0.0613174-0.250885,0.061264
					c-0.2105026,0.0000534-0.3519821-0.0713692-0.4479752-0.1650276c-0.1023865-0.0986824-0.1776409-0.2483597-0.1776409-0.430378
					c0-0.1785812,0.0752544-0.3282013,0.1776409-0.4268875c0.1010456-0.0969925,0.2480488-0.1633301,0.4255867-0.1632805
					c0.0753059,0,0.1623745,0.0152435,0.2732735,0.0627441v0.3028374c-0.0579777-0.061203-0.1450443-0.1207619-0.2665653-0.1207619
					c-0.0956326,0-0.1724854,0.0306015-0.2320595,0.088623c-0.0634937,0.061203-0.1077538,0.1529541-0.1077538,0.2618065
					c-0.0000515,0.1174278,0.0478191,0.2007103,0.0990868,0.250103c0.0238838,0.0238266,0.1059494,0.0951996,0.2458305,0.0951996
					c0.0685978,0,0.1607246-0.0186882,0.2614613-0.1172752V37.6416283z"/>
				<path class="st0" d="M26.0472317,36.6822929c0.1073875,0.1036148,0.1775894,0.2535439,0.1775894,0.4286308
					c0,0.1515274-0.0545731,0.3062286-0.1775894,0.4252472c-0.1062546,0.1019707-0.2496986,0.1667213-0.440958,0.1667747
					c-0.2136879,0-0.3590965-0.085083-0.4445667-0.1667747c-0.1093464-0.1020775-0.1775379-0.2550316-0.1775894-0.4219055
					c0-0.1632309,0.0737591-0.3283577,0.1759911-0.4303322c0.0769043-0.0765038,0.2188034-0.1666641,0.4461651-0.1666641
					C25.7838116,36.5173187,25.9327736,36.5716972,26.0472317,36.6822929z M25.3549767,36.8557396
					c-0.0494118,0.0476456-0.1007366,0.1309814-0.1007366,0.2568283c0,0.1038208,0.0341549,0.1870995,0.1042995,0.2551918
					c0.0732441,0.0698318,0.1555634,0.093647,0.2441769,0.093647c0.1164169,0,0.1983223-0.042511,0.2528439-0.0969849
					c0.0446682-0.0425148,0.0991898-0.1224632,0.0991898-0.2534981c0-0.1174278-0.0478191-0.2042007-0.0991898-0.2551346
					c-0.0561199-0.0543747-0.1470547-0.0969429-0.2509365-0.0969429
					C25.5054855,36.7588463,25.4165115,36.7944832,25.3549767,36.8557396z"/>
				<path class="st0" d="M26.7931786,37.6773224l0.1830597-1.1344872h0.2186985l0.283432,0.6785355l0.2838421-0.6785355h0.2187004
					l0.1826935,1.1344872H27.900547l-0.0905743-0.6769981l-0.2853374,0.6769981h-0.0921211l-0.2858067-0.6769409
					l-0.0905228,0.6769409H26.7931786z"/>
				<path class="st0" d="M29.1866398,36.5428352c0.0992413,0,0.2085876,0.0134583,0.2991161,0.0934448
					c0.0972252,0.0850868,0.1108932,0.1972733,0.1108932,0.2756844c0,0.1428452-0.0548306,0.2228394-0.0975399,0.2668915
					c-0.0905724,0.0919075-0.2101345,0.1005363-0.2904415,0.1005363h-0.1604156v0.3979301h-0.2633667l-0.0000515-1.1345329
					L29.1866398,36.5428352z M29.0482521,37.0649185h0.0937195c0.0360622,0,0.0991898-0.0015907,0.1418991-0.0425186
					c0.0239868-0.0237656,0.0427589-0.0627899,0.0427589-0.1121826c-0.0000458-0.0475998-0.0168648-0.0867729-0.0427589-0.1105995
					c-0.0391521-0.0374794-0.0955811-0.0425148-0.1470032-0.0425148h-0.0885639L29.0482521,37.0649185z"/>
				<path class="st0" d="M30.4563313,36.5428352v1.1344872h-0.2634201v-1.1344872H30.4563313z"/>
				<path class="st0" d="M31.4002438,36.5428352v0.9134941h0.353632v0.220993h-0.6170521l-0.0000515-1.1345329
					L31.4002438,36.5428352z"/>
				<path class="st0" d="M33.0509567,37.4629478h-0.4304352l-0.0874252,0.2143745h-0.2731667l0.4593124-1.1344872h0.2411461
					l0.4496155,1.1345367l-0.2736816-0.0000496L33.0509567,37.4629478z M32.9791565,37.2624512l-0.1399345-0.3810883
					l-0.1418457,0.3810883H32.9791565z"/>
				<path class="st0" d="M34.2911949,36.7638817v0.9134407h-0.2630577v-0.9134407h-0.2477913v-0.2210464h0.7585907v0.2210464
					H34.2911949z"/>
				<path class="st0" d="M35.3715363,36.5428352v1.1344872l-0.2634697,0.0000496l-0.0000534-1.1345367H35.3715363z"/>
				<path class="st0" d="M37.0621681,36.6823425c0.1073952,0.1035652,0.1775398,0.2534943,0.1775398,0.4286346
					c0,0.151474-0.0545197,0.3061752-0.1775398,0.4251938c-0.1062546,0.1019707-0.2497482,0.1667747-0.4410095,0.1667747
					c-0.2136421,0-0.3590965-0.0850296-0.4445152-0.1667747c-0.1093445-0.1020775-0.177536-0.2550316-0.1775894-0.4218597
					c0-0.1632767,0.0737076-0.3284035,0.1759911-0.430378c0.0768547-0.0765038,0.2187538-0.1666145,0.4461136-0.1666145
					C36.798748,36.5173187,36.9477158,36.5717964,37.0621681,36.6823425z M36.369915,36.8557396
					c-0.0494118,0.0476456-0.1007309,0.1309814-0.1007843,0.2568283c0,0.1038208,0.0341949,0.1870995,0.1043015,0.2551918
					c0.073288,0.0698318,0.1556053,0.093647,0.2442207,0.093647c0.1164169,0,0.1983337-0.042511,0.2528458-0.0969315
					c0.0446167-0.0425682,0.0991364-0.1225166,0.0991364-0.2534981c0-0.1174278-0.04776-0.2042542-0.0991898-0.255188
					c-0.0559578-0.0543747-0.1470032-0.0968895-0.250885-0.0969429
					C36.5204315,36.7588463,36.4314003,36.7944832,36.369915,36.8557396z"/>
				<path class="st0" d="M37.8609924,37.677372v-1.1345367h0.2289085l0.6185532,0.731472v-0.731472H38.97192v1.1345367h-0.2289124
					l-0.6186028-0.7349091v0.7349091H37.8609924z"/>
				<path class="st0" d="M40.8707771,36.7638817v0.9134407L40.607666,37.677372v-0.9134903h-0.2477379v-0.2210464h0.7585907
					l-0.0000534,0.2210464H40.8707771z"/>
				<path class="st0" d="M41.945961,36.9748077h0.4542656l0.0000534-0.4319725h0.2634659l-0.0000534,1.1344872l-0.2634659,0.0000496
					v-0.4813156l-0.4542656,0.0000534v0.4812622h-0.2634697l0.0000572-1.1345367h0.2634125V36.9748077z"/>
				<path class="st0" d="M44.0078125,37.4629478h-0.4303818l-0.0874252,0.2144241h-0.2732162l0.4594193-1.1345367h0.2410851
					l0.4495735,1.1345367l-0.2735825-0.0000496L44.0078125,37.4629478z M43.9361191,37.2624512l-0.1399879-0.3810883
					l-0.1418991,0.3810883H43.9361191z"/>
				<path class="st0" d="M45.2484665,36.7638817v0.9134903h-0.2630577v-0.9134903h-0.2477341l0.0000496-0.2210464h0.7585335
					v0.2210464H45.2484665z"/>
				<path class="st0" d="M47.2844276,36.7638817v0.9134903h-0.2629547l-0.0000496-0.9134903H46.773735v-0.2210464h0.7585373
					l-0.0000458,0.2210464H47.2844276z"/>
				<path class="st0" d="M49.0723419,36.6823425c0.1074409,0.1035652,0.1775398,0.2534943,0.1775398,0.4286346
					c0.0000496,0.151474-0.054882,0.3061752-0.1775398,0.4251938c-0.1062546,0.1020241-0.2496986,0.1667747-0.4410095,0.1667747
					c-0.2136383,0-0.3590431-0.085083-0.444561-0.1667747c-0.1092987-0.1020775-0.1774902-0.2550316-0.1774902-0.4218597
					c0-0.1632767,0.0737076-0.3284035,0.1759911-0.430378c0.0768051-0.0765038,0.21875-0.1666145,0.4460602-0.1666145
					C48.8089218,36.5173187,48.9578896,36.5717468,49.0723419,36.6823425z M48.3800888,36.8557892
					c-0.049408,0.047596-0.1007881,0.1309319-0.1007881,0.2567787c0,0.1037674,0.0341492,0.1871567,0.1042938,0.2551918
					c0.0733452,0.0698318,0.1552582,0.0937042,0.2442322,0.0937042c0.1164169-0.0000572,0.1983757-0.0425682,0.2527924-0.0969887
					c0.0447197-0.0425682,0.0991898-0.1225166,0.0992432-0.2534981c0-0.1174278-0.0478706-0.2042542-0.0991898-0.255188
					c-0.0560684-0.0543747-0.1470566-0.0969429-0.250885-0.0969429
					C48.5305977,36.7588997,48.4415741,36.7945366,48.3800888,36.8557892z"/>
				<path class="st0" d="M50.8351364,37.2148476c0,0.1088066-0.0137215,0.2430725-0.1266212,0.358757
					c-0.1093521,0.1123924-0.2356224,0.1293411-0.3551331,0.1293411c-0.119915,0-0.2462425-0.0169487-0.3555374-0.1293411
					c-0.1129112-0.1156845-0.1266327-0.2499504-0.1266327-0.358757v-0.6720123h0.2634201v0.6651344
					c0,0.0491867,0.0031433,0.1326256,0.0595741,0.1904411c0.0463181,0.0493927,0.1094055,0.0595093,0.1591263,0.0595093
					c0.0494118,0,0.1125412-0.0101166,0.1588097-0.0595093c0.0564308-0.0577621,0.0599365-0.1412544,0.0599365-0.1904411v-0.6651344
					h0.2630577V37.2148476z"/>
				<path class="st0" d="M52.3333282,37.6416855c-0.1007347,0.0509377-0.1826973,0.0612602-0.2509346,0.0613098
					c-0.2105026-0.0000496-0.3519325-0.0714226-0.4479752-0.1650848c-0.1023865-0.0987282-0.1776428-0.2484055-0.1776428-0.4304237
					c0-0.1785355,0.0753059-0.3281517,0.1776428-0.4268875c0.1010971-0.0969925,0.2481003-0.1633301,0.4256363-0.1632805
					c0.0753059,0,0.1623268,0.0152435,0.2732735,0.0627937v0.3028412c-0.0579758-0.0612564-0.1450424-0.1207657-0.2665634-0.1207657
					c-0.0956841,0-0.1724854,0.0306015-0.2320595,0.0885735c-0.0634956,0.061203-0.1077995,0.1529541-0.1077995,0.2618065
					c0,0.1174774,0.0478134,0.2007103,0.0991325,0.250103c0.0239372,0.0238266,0.1058922,0.0952492,0.2457771,0.0952492
					c0.0686569,0,0.1608276-0.0186882,0.2615128-0.1172714V37.6416855z"/>
				<path class="st0" d="M53.2325668,36.9748077h0.4542656l0.0000534-0.4319725h0.2633667v1.1345367h-0.2634201l0.0000534-0.4812622
					h-0.4543686v0.4812622h-0.2634659v-1.1345367h0.2634659L53.2325668,36.9748077z"/>
				<path class="st0" d="M55.2688904,36.7639351l-0.3810196-0.0000534v0.2195549h0.3622513v0.220993h-0.3622513l0.0000496,0.2518997
					h0.38097v0.2210426h-0.6443825l-0.0000458-1.1345367h0.6444283V36.7639351z"/>
				<path class="st0" d="M56.4958763,36.8201027c-0.0855179-0.0766602-0.1592255-0.0816879-0.1913643-0.0817413
					c-0.0359993,0-0.0802536,0.0050316-0.1113052,0.0392303c-0.0167618,0.0169449-0.0289879,0.042511-0.0289383,0.0714226
					c0,0.0271072,0.0085602,0.0475922,0.0258446,0.0629959c0.0270233,0.0253716,0.0666389,0.0356865,0.1434402,0.0645447
					l0.0854683,0.0324478c0.0493622,0.0185356,0.1109505,0.0441055,0.1552048,0.0866203
					c0.0666389,0.0630074,0.0839195,0.1445923,0.0839195,0.2109337c0,0.1174774-0.0412102,0.2194519-0.1007385,0.2806473
					c-0.1007309,0.1054192-0.2477837,0.1157913-0.3229866,0.1157913c-0.0819626-0.0000496-0.1536598-0.0119133-0.2258224-0.0476532
					c-0.0580177-0.0290108-0.1246643-0.0817375-0.1673698-0.1242523l0.1367836-0.1871071
					c0.0290413,0.0288582,0.0753059,0.0680885,0.1058922,0.0868263c0.0446701,0.0271111,0.09058,0.0407181,0.1434479,0.0407181
					c0.0345039,0.0000534,0.0822716-0.0067787,0.1199226-0.0389709c0.0219727-0.0186882,0.0407982-0.0493927,0.0407982-0.0919609
					c0-0.0373802-0.015316-0.061203-0.0392532-0.0816917c-0.0309486-0.0255661-0.1006775-0.0509338-0.1332321-0.0627937
					l-0.0940781-0.0323982c-0.0529213-0.0186882-0.1144066-0.0425682-0.1587639-0.0901642
					c-0.0600395-0.0629539-0.0685463-0.1429977-0.0685463-0.1974258c0-0.1003265,0.0309486-0.1853561,0.0991325-0.254982
					c0.0803642-0.0817947,0.1759911-0.1038208,0.2818336-0.1038208c0.0787697,0,0.2053375,0.0136566,0.3387299,0.1121941
					L56.4958763,36.8201027z"/>
				<path class="st0" d="M28.5849648,38.6644363c0.1073875,0.103569,0.1775379,0.2533951,0.1775379,0.4286385
					c0,0.1514168-0.0544701,0.3060722-0.1775379,0.4251442c-0.1062088,0.1020241-0.2496471,0.1668205-0.4410095,0.1668205
					c-0.2135944,0-0.3590508-0.0850258-0.4444637-0.1668205c-0.1094036-0.1020241-0.1776409-0.2550316-0.1775894-0.4218063
					c0-0.1632805,0.0736618-0.3284073,0.1759911-0.430481c0.0768013-0.0764008,0.2186947-0.1665115,0.4460621-0.1665115
					C28.3215446,38.4994202,28.4704552,38.553791,28.5849648,38.6644363z M27.8927097,38.8378906
					c-0.0494175,0.047596-0.1006851,0.1308784-0.1006851,0.2567749c0,0.1037674,0.0340405,0.1870537,0.1041908,0.2551422
					c0.0733471,0.0698242,0.1556702,0.0936508,0.2442341,0.0936508c0.1164112,0,0.1983223-0.0425148,0.2528439-0.0969429
					c0.0446682-0.0425644,0.0991325-0.122509,0.0991325-0.2534409c0-0.1174278-0.0478134-0.204258-0.0991325-0.2551842
					c-0.0560684-0.0544815-0.1470032-0.0969963-0.2509365-0.0969963
					C28.0432186,38.7408943,27.9542942,38.7766342,27.8927097,38.8378906z"/>
				<path class="st0" d="M29.3838387,39.65942l0.0000458-1.1344872h0.2289085l0.6185474,0.731472v-0.731472h0.2634716
					L30.4947605,39.65942H30.265852l-0.6185989-0.7347031v0.7347565L29.3838387,39.65942z"/>
				<path class="st0" d="M32.1590843,38.5249329l0.2890053,0.726387l0.2888489-0.726387h0.2833786l-0.4833031,1.1345406
					L32.3590126,39.65942l-0.4837189-1.1344872H32.1590843z"/>
				<path class="st0" d="M34.1226311,39.4450493h-0.4304352L33.6048203,39.65942h-0.2732697l0.4594727-1.1344872h0.2410851
					l0.4495735,1.1344872h-0.2735786L34.1226311,39.4450493z M34.0508804,39.2444916l-0.1399345-0.3810883l-0.1418953,0.3810387
					L34.0508804,39.2444916z"/>
				<path class="st0" d="M35.4346161,38.5249329c0.1454048,0,0.235981,0.047596,0.2905006,0.098484
					c0.04776,0.0460548,0.0991325,0.1276474,0.0991325,0.2534409c0,0.0716286-0.0152664,0.1599922-0.0886154,0.2314148
					c-0.0395584,0.0374336-0.0959854,0.0714226-0.1591148,0.0868263l0.3504791,0.4643745L35.6055031,39.65942l-0.307312-0.4473763
					V39.65942H35.034771l0.0000496-1.1344872H35.4346161z M35.2981911,39.0401878h0.0596313
					c0.0477562,0,0.1128502-0.0050812,0.1571083-0.0491943c0.0188255-0.0186806,0.0427551-0.0543709,0.0427551-0.1105881
					c0-0.0645447-0.0305862-0.09869-0.0529709-0.1157341c-0.0427017-0.0323982-0.1108971-0.0356369-0.1449394-0.0356369h-0.0615845
					V39.0401878z"/>
				<path class="st0" d="M36.7662048,38.5249329l-0.0000534,1.1345406h-0.2633171v-1.1345406H36.7662048z"/>
				<path class="st0" d="M38.4564781,38.6644363c0.1073914,0.1036224,0.1775894,0.2534485,0.1775398,0.4286385
					c0,0.1514168-0.054882,0.306118-0.1775894,0.4251442c-0.1062584,0.1020241-0.2495956,0.1668205-0.4409561,0.1668205
					c-0.2136497,0-0.3590546-0.085083-0.4445152-0.1668205c-0.1094055-0.1019745-0.1775894-0.2550316-0.1775894-0.4218063
					c0-0.1632805,0.0737076-0.3284073,0.1759911-0.4304352c0.0768509-0.0764465,0.2187462-0.1665573,0.4461136-0.1665573
					C38.1930084,38.4994202,38.3419724,38.553791,38.4564781,38.6644363z M37.7641716,38.8379402
					c-0.0493622,0.0475464-0.1007309,0.1308289-0.1007309,0.2567253c0,0.1037674,0.0341415,0.1870537,0.1043434,0.2551918
					c0.0732956,0.0697746,0.1551552,0.0936012,0.2441292,0.0936012c0.1164627,0,0.1983719-0.0425148,0.2528419-0.0968895
					c0.0446701-0.0426178,0.0991859-0.1225624,0.0991859-0.2534943c0-0.1174278-0.0478134-0.204258-0.0991859-0.2551842
					c-0.056015-0.0544815-0.1470528-0.0969963-0.2508812-0.0969963
					C37.9147873,38.7408943,37.8257599,38.7766342,37.7641716,38.8379402z"/>
				<path class="st0" d="M40.219635,39.19664c0,0.108902-0.0137749,0.2433281-0.1266327,0.3590126
					c-0.1093979,0.112442-0.2355652,0.1293869-0.3551254,0.1293869c-0.119976,0-0.2461357-0.0169449-0.3555412-0.1293869
					c-0.1129036-0.1156845-0.1265755-0.2501106-0.1265755-0.3590126l-0.0000458-0.6717072h0.2634659v0.6650848
					c0,0.0491867,0.0030937,0.1326714,0.0595741,0.1904411c0.0462151,0.0493431,0.1093483,0.0595093,0.1591225,0.0595093
					c0.0494156,0,0.1124954-0.0101662,0.1587639-0.0595589c0.0564804-0.0577202,0.0599327-0.1412048,0.0599327-0.1903381v-0.6651382
					h0.2631111L40.219635,39.19664z"/>
				<path class="st0" d="M41.4818993,38.8021507c-0.0855217-0.0766602-0.1592293-0.0817451-0.1913147-0.0817451
					c-0.0361023,0.0000572-0.0804634,0.0051308-0.1113586,0.0391769c-0.0168152,0.0170517-0.0290375,0.0425682-0.0290375,0.071476
					c0,0.0271111,0.0087166,0.0475998,0.0259438,0.0629539c0.0270233,0.0254097,0.0665894,0.0357857,0.1434402,0.0646362
					l0.0854187,0.0323448c0.0494156,0.0185394,0.1108971,0.0441132,0.1552582,0.0866776
					c0.0666389,0.0629997,0.0838661,0.1445923,0.0838127,0.2108765c0.0000534,0.1174774-0.0411034,0.2195549-0.1006813,0.2807579
					c-0.1007347,0.1053658-0.2477379,0.1157341-0.3230438,0.1157341c-0.08181,0-0.1536064-0.0119095-0.2257195-0.0475998
					c-0.0580254-0.02911-0.1247177-0.0817871-0.1674232-0.1243019l0.1368446-0.1871567
					c0.0289803,0.0289574,0.0752487,0.0682411,0.105835,0.0868759c0.0446701,0.0271111,0.090477,0.0407639,0.1433945,0.0407639
					c0.0345612,0,0.0823746-0.0068245,0.1200256-0.0391731c0.0219231-0.0185852,0.040699-0.0491867,0.040699-0.0917015
					c0-0.0375404-0.0152168-0.061306-0.0391541-0.0817947c-0.0309982-0.0255203-0.1007309-0.0509338-0.1332283-0.0627937
					l-0.0941315-0.0324516c-0.0529251-0.018692-0.11446-0.0425148-0.1587143-0.0901108
					c-0.0600319-0.0630035-0.0686493-0.1429977-0.0686493-0.1974258c0-0.1002846,0.0309982-0.1853561,0.0991859-0.2550316
					c0.0803642-0.0816956,0.1759911-0.1037178,0.2818375-0.1037178c0.0788116,0,0.2053871,0.013607,0.3386688,0.1121292
					L41.4818993,38.8021507z"/>
				<path class="st0" d="M43.9070778,39.6237831c-0.1007309,0.0508881-0.1826935,0.0612564-0.250885,0.0612564
					c-0.210495,0-0.3519707-0.0714226-0.4480209-0.1650772c-0.1023369-0.0987396-0.1776428-0.2483597-0.1776428-0.4303818
					c0.0000534-0.178524,0.0753593-0.3283997,0.1776428-0.4268837c0.1011505-0.0969925,0.2481537-0.1632767,0.4256897-0.1632767
					c0.0752602,0,0.1622696,0.0151978,0.2732162,0.0627937l-0.0000496,0.3028374
					c-0.0579224-0.0613098-0.1449356-0.1208191-0.2664642-0.1208191c-0.0956764,0-0.1725311,0.0306511-0.2321053,0.0885696
					c-0.063446,0.0612106-0.1077538,0.1529617-0.1077538,0.2618637c0,0.1174278,0.0478172,0.2007141,0.0990868,0.250103
					c0.0239334,0.0238304,0.1058922,0.0951996,0.2458878,0.0951996c0.0685425,0,0.1606674-0.0186958,0.2613983-0.1172218V39.6237831
					z"/>
				<path class="st0" d="M45.5531044,38.6644363c0.1073837,0.1036224,0.1775322,0.2534485,0.1774826,0.4286385
					c0,0.1514168-0.0548325,0.306118-0.1775398,0.4251442c-0.1062546,0.1020241-0.249752,0.1668205-0.4410095,0.1668205
					c-0.2136421,0-0.3590965-0.0850258-0.4444618-0.1668205c-0.1094017-0.1020241-0.1775894-0.2550316-0.1775894-0.4218063
					c0-0.1632805,0.0737076-0.3283539,0.1759911-0.4304352c0.0768509-0.0764465,0.21875-0.1665573,0.4460602-0.1665573
					C45.2896271,38.4994202,45.4386406,38.553791,45.5531044,38.6644363z M44.8608437,38.8378906
					c-0.0494576,0.0476456-0.1007881,0.1308784-0.1008377,0.2567749c0,0.1037674,0.0341949,0.1870537,0.1043434,0.2551918
					c0.073246,0.0697746,0.1552086,0.0936012,0.2441826,0.0936012c0.1164169,0,0.1983223-0.0425148,0.2528458-0.0968895
					c0.0447235-0.0426178,0.0991898-0.1225624,0.0991898-0.2534943c0-0.1173744-0.047821-0.204258-0.0992432-0.2551842
					c-0.0559654-0.0544281-0.1469498-0.0969963-0.2507744-0.0969963
					C45.0113029,38.7408943,44.9223251,38.7766342,44.8608437,38.8378906z"/>
				<path class="st0" d="M46.7517624,38.5249329c0.1454048,0,0.2359276,0.0476532,0.2904549,0.098484
					c0.0478058,0.0460548,0.0991783,0.1276474,0.0991287,0.2534904c0.0000496,0.071579-0.0152702,0.1599426-0.0885658,0.2313652
					c-0.0395584,0.0374336-0.0960388,0.0714226-0.1591148,0.0868797l0.3504257,0.4643211h-0.3213882l-0.3073654-0.4473801v0.4473801
					h-0.2634201v-1.1345406H46.7517624z M46.6153374,39.0401878h0.0595741
					c0.0478134,0.0000496,0.112854-0.0050354,0.1572113-0.0491943c0.0188293-0.0186806,0.0427589-0.0543709,0.0427589-0.1105385
					c0-0.0645485-0.0305862-0.0987892-0.0529099-0.1157341c-0.0427666-0.0323982-0.1109581-0.0356865-0.1451035-0.0356865
					h-0.0615311V39.0401878z"/>
				<path class="st0" d="M48.4592667,38.7459755h-0.381073l0.0000496,0.2195053h0.3622437v0.2210426h-0.3622932v0.2519569
					l0.381073-0.0000496v0.2210426H47.814827l0.0000534-1.1345406h0.6443863V38.7459755z"/>
				<path class="st0" d="M49.8696671,39.6594734l0.1830025-1.1345406l0.21875,0.0000534l0.283432,0.6785355l0.283844-0.6785355
					l0.2186966-0.0000534l0.1827011,1.1345406h-0.2631111l-0.0905151-0.6769943l-0.2853508,0.6769943h-0.0921211
					l-0.2857475-0.6769943l-0.0905762,0.6769943H49.8696671z"/>
				<path class="st0" d="M52.8252983,39.1966896c0,0.1088524-0.0137749,0.2432785-0.1266861,0.358963
					c-0.1092949,0.1124954-0.2355652,0.1293869-0.3550758,0.1293869c-0.1199722,0-0.2462387-0.0168915-0.3555374-0.1293869
					c-0.1129074-0.1156845-0.1266747-0.2501106-0.1266747-0.358963v-0.6717567h0.2634163v0.6650848
					c0,0.0491867,0.0031967,0.1327286,0.0595741,0.1904411c0.0462685,0.0493431,0.1094513,0.0595093,0.1592216,0.0595093
					c0.0493164,0,0.1125031-0.0101662,0.1587143-0.0595093c0.0564346-0.0577126,0.0599365-0.1412544,0.0599365-0.1903877v-0.6651382
					h0.2631111V39.1966896z"/>
				<path class="st0" d="M54.0878677,38.8021507c-0.0854607-0.0766144-0.1591721-0.0816879-0.1912575-0.0816879
					c-0.0361061,0-0.0804062,0.0050735-0.1113548,0.0391731c-0.0168724,0.0169983-0.0290451,0.0425148-0.0290451,0.0714226
					c0,0.0271606,0.0086098,0.0475998,0.0258942,0.0630035c0.0269775,0.0253601,0.0666389,0.0357361,0.1434937,0.0645866
					l0.0854149,0.0323448c0.0494118,0.0185394,0.1109505,0.0441132,0.1552582,0.0866776
					c0.0665894,0.0630531,0.0838661,0.1445923,0.0838661,0.2108765c0,0.1174774-0.0411568,0.2195549-0.1007271,0.2807579
					c-0.1007423,0.1053658-0.2476921,0.1157341-0.322998,0.1157341c-0.0819626,0-0.1536598-0.0118561-0.225769-0.0475998
					c-0.0580292-0.0290604-0.1246681-0.0817375-0.1674271-0.1243019l0.1367874-0.1871071
					c0.0290451,0.0289078,0.0753059,0.0681381,0.1058426,0.0868797c0.0446739,0.0270576,0.0905266,0.0407104,0.1434975,0.0407104
					c0.0345154,0,0.0823746-0.0068245,0.1199722-0.0391731c0.0219269-0.0185318,0.0407524-0.0491867,0.0407524-0.0917015
					c0-0.0375404-0.0152702-0.061306-0.0392036-0.0817947c-0.0309982-0.0255203-0.1007843-0.0508804-0.1332817-0.0627937
					l-0.0940819-0.0324516c-0.0529213-0.0186462-0.1144066-0.0425148-0.1587639-0.0900574
					c-0.0599861-0.0630074-0.0685463-0.1430016-0.0685463-0.1974297c0-0.1003799,0.0308952-0.1854057,0.0991325-0.2550316
					c0.0803642-0.0817451,0.1760445-0.1037674,0.2821922-0.1037674c0.0784569,0,0.2050362,0.013607,0.3383141,0.1121864
					L54.0878677,38.8021507z"/>
				<path class="st0" d="M55.1337013,38.5249329v1.1345406h-0.2634697v-1.1345406H55.1337013z"/>
				<path class="st0" d="M56.6377716,39.6237831c-0.1007309,0.0508881-0.1826401,0.061306-0.250885,0.0612564
					c-0.210495,0.0000496-0.3519821-0.0714226-0.4480209-0.1650772c-0.1023331-0.09869-0.1775818-0.2483063-0.1775818-0.4303818
					c0-0.178524,0.0752487-0.3283501,0.1775818-0.4268837c0.1011467-0.0969429,0.2480965-0.1632767,0.4256859-0.1632767
					c0.0752068,0,0.1622696,0.0151978,0.2732201,0.0627937v0.3028374c-0.0580788-0.0613098-0.1450882-0.1207695-0.2665634-0.1207695
					c-0.0956726,0-0.1724319,0.0306015-0.2321091,0.0885201c-0.0634422,0.0612106-0.1077499,0.1529617-0.1078033,0.2618637
					c0.0000534,0.1174278,0.0478134,0.2007637,0.0992432,0.250103c0.0238762,0.0238304,0.1058388,0.0951996,0.2457733,0.0951996
					c0.0686035,0,0.1607285-0.0186958,0.2614594-0.1172218V39.6237831z"/>
			</g>
		</g>
	</g>
	<path class="st0" d="M12.8471117,33.0179482c-0.0126839,0.0001602-0.0253792,0.0003128-0.0379601,0.0004158
		c-0.0318289,0.0000534-0.06355,0.0001564-0.0953226,0.000206c-0.0127926-0.000515-0.0256367-0.0010262-0.0384293-0.0015411
		c-0.1911554-0.033886-0.3238182-0.1410484-0.4046936-0.3158226c-0.0326023-0.0704994-0.0839224-0.1346359-0.1046553-0.2078514
		c-0.077528-0.2741318,0.1283331-0.5436497,0.4155788-0.553915c0.1444244-0.0051384,0.2411861-0.0911446,0.2537718-0.2224808
		c0.0038671-0.0398464-0.000515-0.0663471-0.0485344-0.0717831c-0.1609306-0.0182266-0.2805433-0.0802555-0.300869-0.2636127
		c-0.0064402-0.0585823-0.0521965-0.1224537-0.1178551-0.1071014c-0.0676756,0.0159168-0.1299362,0.0627937-0.1880617,0.1048985
		c-0.0121222,0.0087776,0.0008297,0.0571995,0.0079403,0.0858974c0.0322886,0.1313934-0.0118647,0.2497501-0.1261101,0.3313351
		c-0.0998087,0.0713215-0.2346888,0.0725536-0.338829,0.0031834c-0.124568-0.0829716-0.171195-0.237114-0.1134253-0.3744621
		c0.0565834-0.1342678,0.1937847-0.2049217,0.3430567-0.1767368c0.0990343,0.0187454,0.1782084-0.0310593,0.1854315-0.1232796
		c0.0021143-0.0271053-0.0106783-0.0637188-0.0298128-0.0827141c-0.1451464-0.1440773-0.2773466-0.2972393-0.3467693-0.4925117
		c-0.0171289-0.0481606-0.0218725-0.1064892-0.0132103-0.1568565c0.0394611-0.2300873-0.0723667-0.4396744-0.2857504-0.5219326
		c-0.2112179-0.0814362-0.4473-0.004055-0.5634527,0.1942863c-0.0461178,0.0786705-0.0778847,0.1624107-0.1601105,0.2162743
		c-0.1366339,0.0894947-0.3309298,0.0563278-0.432909-0.0805073c-0.1064081-0.1427422-0.0868607-0.3353405,0.0444622-0.4388008
		c0.1370468-0.108036,0.2616615-0.1135788,0.4098034-0.0185871c0.3076706,0.197525,0.6820917,0.0592022,0.7536345-0.2835331
		c0.0277452-0.1326828,0.0291376-0.2672081-0.0399761-0.3946953c-0.0792246-0.146183-0.1054802-0.3006783-0.0325975-0.4577465
		c0.0299683-0.0645409,0.0734501-0.122715,0.107852-0.1854076c0.0116587-0.0212593,0.0227442-0.0485249,0.0198622-0.0711136
		c-0.0457563-0.3449955-0.4282217-0.5190525-0.7293949-0.339241c-0.1886806,0.1126995-0.3847294,0.1095181-0.5694962-0.013916
		c-0.1751146-0.1169701-0.2554741-0.2884655-0.2305079-0.4942551c0.027235-0.2245331,0.1550989-0.3816071,0.3773565-0.4465008
		c0.3162394-0.0922661,0.6121016,0.0996113,0.6748724,0.4317131c0.0531301,0.281271,0.2682714,0.4425488,0.5511818,0.4125633
		c0.1192522-0.0126324,0.212718-0.0746059,0.2940569-0.1574745c0.0074358-0.0076008,0.0128956-0.02244,0.0112972-0.0326595
		c-0.0151119-0.0969372,0.0383263-0.1594238,0.1119261-0.2041512c0.1060057-0.0643864,0.2174158-0.1200447,0.3257313-0.1808891
		c0.1078529-0.0606384,0.2058048-0.13237,0.2653742-0.2450695c0.0510149-0.0965328,0.0171289-0.1649265-0.0913982-0.1841793
		c-0.1156902-0.0204334-0.1923933-0.128828-0.1688709-0.2385006c0.0248117-0.1151237,0.140192-0.1867962,0.2535658-0.1574268
		c0.1095018,0.0283432,0.1750116,0.1451035,0.1437035,0.2558575c-0.0070696,0.0249004-0.0178976,0.0497017-0.0194492,0.0749645
		c-0.0026302,0.0414314,0.0115032,0.0715256,0.0571508,0.0894966c0.2144203,0.0845108,0.3919582,0.0085201,0.5576315-0.1216431
		c0.0289373-0.0226917,0.0526142-0.0520611,0.0781937-0.0788651c0.0407495-0.0426693,0.027957-0.0889816-0.0301218-0.1015625
		c-0.2413921-0.0519581-0.3783302-0.1996288-0.4172287-0.4416752c-0.0351753-0.2188873,0.1129103-0.4662209,0.3252106-0.5388699
		c0.327486-0.1119366,0.6445961,0.0806618,0.6946783,0.4218521c0.026926,0.1831017-0.0759764,0.3965435-0.2370605,0.490406
		c-0.0263071,0.0153522-0.0557079,0.0259266-0.0806684,0.0430241c-0.0349236,0.0239296-0.0525112,0.045599-0.0052137,0.0838432
		c0.1606722,0.1298599,0.3431606,0.1276016,0.529933,0.0920677c0.0960445-0.0181751,0.1883707-0.0550957,0.2841063-0.0753746
		c0.1852207-0.0392246,0.344655,0.0214653,0.4854136,0.1394005c0.068964,0.0577183,0.0971794,0.0620804,0.1470032,0.0161266
		c0.0529747-0.0488796,0.0604-0.1309834,0.0165052-0.189106c-0.0645761-0.0855942-0.0808229-0.1773491-0.0329065-0.2753696
		c0.0574083-0.1174831,0.1875458-0.1768856,0.306901-0.1423779c0.1224499,0.0353241,0.2077637,0.1581917,0.1929607,0.2779865
		c-0.0165052,0.1341152-0.1196651,0.2314625-0.2536182,0.2392178c-0.11059,0.0064678-0.1951818,0.0863132-0.2019367,0.1906986
		c-0.0071154,0.1111088,0.0596266,0.2018871,0.168355,0.2225838c0.0262547,0.0049782,0.0570993,0.0022011,0.0823755-0.0067806
		c0.1339006-0.047699,0.2604284-0.0043678,0.3209829,0.1216927c0.0272293,0.0567894,0.0645761,0.068903,0.1203346,0.0620251
		c0.1550474-0.0192032,0.2486162-0.1652813,0.2055979-0.3231716c-0.0596256-0.2185783-0.0090237-0.3940792,0.1570625-0.511301
		c0.1530361-0.1079273,0.3184528-0.114912,0.4828873-0.0272141c0.1516953,0.0808716,0.2456779,0.2672024,0.2210217,0.4350548
		c-0.027029,0.183918-0.1294155,0.3101273-0.3087578,0.369791c-0.101305,0.0337334-0.2013187,0.0282402-0.3014317-0.0093479
		c-0.1270428-0.0476475-0.2670231,0.0120163-0.3169613,0.1320114c-0.025116,0.0605354-0.0081463,0.093811,0.0564804,0.1104469
		c0.1399403,0.0359898,0.1916714,0.131855,0.1472092,0.2727966c-0.0215569,0.0684967,0.0201664,0.1747303,0.0847473,0.2152939
		c0.0498295,0.0313721,0.1343136,0.0276756,0.1758881-0.0196171c0.0266171-0.0303402,0.0449257-0.0745487,0.0510616-0.1149578
		c0.0256367-0.1690331,0.1642818-0.2874374,0.3275318-0.2730083c0.1704731,0.0150433,0.2917881,0.151371,0.2828636,0.3235302
		c-0.005827,0.1131668-0.0627193,0.1998386-0.1641788,0.2498474c-0.1019211,0.0502186-0.2057514,0.0518608-0.3050861-0.0141201
		c-0.0871716-0.0579185-0.1790905-0.0420532-0.2242794,0.0420017c-0.011858,0.0220299-0.0137157,0.0584316-0.0039692,0.0814304
		c0.0708199,0.1669807,0.1284351,0.3369884,0.1393204,0.5195198c0.0051041,0.0852356-0.0055237,0.1632271-0.0561714,0.2407589
		c-0.123848,0.189518-0.082325,0.4346428,0.0877361,0.5862656c0.1596413,0.1423836,0.4238815,0.1520901,0.5926533,0.0117073
		c0.0641117-0.053297,0.1195621-0.1102352,0.2056503-0.1304684c0.1626301-0.03825,0.3353157,0.0571995,0.3812275,0.2171421
		c0.051939,0.1809921-0.0328045,0.3514614-0.2005959,0.403574c-0.1599503,0.0497532-0.2849789,0.0082169-0.3842716-0.1274872
		c-0.1533451-0.2095966-0.3364563-0.2803478-0.5613441-0.2133446c-0.1109447,0.0330658-0.2022972,0.0984268-0.2583599,0.1992245
		c-0.1129112,0.2031231-0.1869736,0.4182072-0.1528358,0.65522c0.0172787,0.1195316,0.0378628,0.2408657,0.1167259,0.3394451
		c0.1407127,0.1757565,0.3225822,0.2371197,0.5420036,0.1825314c0.3532715-0.0876923,0.7703457,0.1454182,0.8783512,0.4929733
		c0.0160923,0.0518055,0.0268745,0.1053085,0.0401363,0.1579399c0.0000458,0.0656738,0.0000973,0.1312923,0.0002022,0.196909
		c-0.0290871,0.1648254-0.0943394,0.3123398-0.2154522,0.4308472c-0.2045097,0.2000847-0.4501877,0.2743874-0.7277908,0.2061005
		c-0.2798214-0.0688057-0.4648361-0.2481537-0.5516968-0.5238838c-0.033268-0.1057701-0.0366707-0.2126179-0.0225945-0.3228607
		c0.0436363-0.3413448-0.3137083-0.6367874-0.6429415-0.5330696c-0.02244,0.0070839-0.0457506,0.0264912-0.0582342,0.0466213
		c-0.0923262,0.1487484-0.231801,0.1996288-0.3996868,0.2064095c-0.1868296,0.0074482-0.3683376,0.0450764-0.5290098,0.1460781
		c-0.0466223,0.0293198-0.0850563,0.0740871-0.1208506,0.1171207c-0.0378618,0.0454922-0.0246572,0.0762978,0.0318241,0.091959
		c0.1527824,0.0423088,0.2409849,0.1763725,0.2145176,0.32584c-0.0259924,0.1468468-0.1621666,0.2541122-0.3118973,0.241066
		c-0.11059-0.0095978-0.1951828-0.0650024-0.2412434-0.1661491c-0.04673-0.1022301-0.0377064-0.203331,0.0281124-0.296833
		c0.00877-0.0124779,0.0230064-0.0221786,0.0282145-0.0356846c0.0067539-0.0174046,0.0069656-0.0373306,0.0100079-0.0561218
		c-0.0156851-0.0025139-0.0315714-0.0081596-0.0469418-0.0069332c-0.1065111,0.0078583-0.2087431-0.0054932-0.3089638-0.0450249
		c-0.0206299-0.0081673-0.0609674,0.0023098-0.0770597,0.0187912c-0.0669479,0.0687523-0.046834,0.1674309,0.0396662,0.2199631
		c0.1302977,0.079174,0.1659317,0.240139,0.0817003,0.3696404c-0.0773172,0.1189156-0.2462902,0.1520844-0.36446,0.0714722
		c-0.1250839-0.0853386-0.1568565-0.2564735-0.0639629-0.3727226c0.0288334-0.0360909,0.0699959-0.0666428,0.1117249-0.0873909
		c0.0877943-0.0438957,0.1401453-0.160141,0.1023865-0.2519512c-0.0045376-0.0111389-0.0331602-0.0243855-0.0426064-0.0199203
		c-0.2141056,0.1006889-0.4152689,0.0696259-0.610343-0.0517597c-0.0123281-0.0076466-0.041832-0.0024128-0.0549335,0.0077553
		c-0.0778284,0.0599728-0.0961943,0.1872597-0.0397701,0.2720337c0.0178509,0.0267982,0.040904,0.0510864,0.0651016,0.0726471
		c0.156847,0.1402283,0.2182312,0.3152657,0.1724749,0.5180855c-0.0464725,0.2059975-0.1778469,0.3393402-0.3871059,0.3911972
		C12.8717632,33.0089149,12.8594913,33.0138435,12.8471117,33.0179482z M14.0202942,27.0977898
		c-1.1626587,0.0022125-2.1515493,0.8910561-2.166151,2.1664333c-0.0133028,1.1654968,0.9420052,2.1518459,2.1609955,2.1338768
		c1.1494532-0.016943,2.1314354-0.9002438,2.1531982-2.1165791C16.1900558,28.0699234,15.2333498,27.1072407,14.0202942,27.0977898z
		"/>
</g>
</svg>
