<?xml version="1.0" encoding="utf-8"?>
<!-- Generator: Adobe Illustrator 28.0.0, SVG Export Plug-In . SVG Version: 6.00 Build 0)  -->
<svg version="1.1" id="레이어_1" xmlns="http://www.w3.org/2000/svg" xmlns:xlink="http://www.w3.org/1999/xlink" x="0px"
	 y="0px" width="127.5590515px" height="37.9842529px" viewBox="0 0 127.5590515 37.9842529"
	 style="enable-background:new 0 0 127.5590515 37.9842529;" xml:space="preserve">
<style type="text/css">
	.st0{fill:#00344D;}
</style>
<g>
	<path class="st0" d="M26.2435455,35.5979347c-0.4558353,0-0.740118,0.1813965-0.8939667,0.3356171
		c-0.205246,0.2049217-0.352869,0.5374565-0.352869,0.8658791c0,0.3357887,0.1367741,0.6435394,0.3556671,0.8490334
		c0.1714382,0.164669,0.4628029,0.3357887,0.8911686,0.3357887c0.3833065,0,0.670845-0.1302948,0.8835144-0.3357887
		c0.2465343-0.2395782,0.3557243-0.5511017,0.3557243-0.8556023c0-0.3526878-0.1403141-0.6543884-0.3557243-0.8625641
		C26.8978863,35.7077904,26.5993824,35.5979347,26.2435455,35.5979347z M26.7429523,37.3031387
		c-0.1089039,0.1095695-0.2731476,0.1948738-0.5066032,0.1948738c-0.1777763,0-0.3425903-0.0478477-0.4895287-0.1885338
		c-0.1404266-0.1372032-0.2087288-0.3046722-0.2087288-0.5134163c0-0.2533417,0.1027946-0.4208069,0.2019901-0.5167313
		c0.1234112-0.1233864,0.3015862-0.1952133,0.5002079-0.1952133c0.2081013,0,0.3905029,0.0853577,0.5026627,0.1952133
		c0.1030788,0.1022606,0.1990204,0.2770348,0.1990204,0.5135307C26.9419727,37.056366,26.8324966,37.2172089,26.7429523,37.3031387z
		"/>
	<polygon class="st0" points="42.5079002,36.0943947 43.0044556,36.0943947 43.0044556,37.9326935 43.5316162,37.9326935 
		43.5316162,36.0943947 44.0278816,36.0943947 44.0278816,35.6494942 42.5079002,35.6494942 	"/>
	<polygon class="st0" points="30.4261189,37.1213989 29.1864243,35.6494942 28.7276192,35.6494942 28.7276192,37.9326935 
		29.2557526,37.9326935 29.2557526,36.453537 30.4951057,37.9326935 30.9539089,37.9326935 30.9539089,35.6494942 
		30.4261189,35.6494942 	"/>
	<rect x="23.2111778" y="35.6494942" class="st0" width="0.5282471" height="2.2831993"/>
	<path class="st0" d="M122.273613,36.496357l-0.1711502-0.0653191c-0.1539612-0.0577812-0.2337418-0.0787354-0.2876511-0.1296082
		l-0.051857-0.1270409l0.0580215-0.1436577l0.2234039-0.0788498c0.0644226,0,0.2120438,0.0099907,0.3829117,0.1642113
		l0.236824-0.3834076c-0.2670898-0.1982994-0.5211105-0.2257614-0.6780396-0.2257614
		c-0.2127228,0-0.4047241,0.0445328-0.5655975,0.2091446c-0.1365967,0.1400032-0.1987305,0.3111229-0.1987305,0.5128479
		c0,0.1095695,0.0170135,0.2706985,0.1376266,0.3975677c0.0885773,0.0956383,0.2119827,0.1436539,0.3179169,0.1811676
		l0.1886292,0.0653191l0.2670975,0.126358l0.0783463,0.164608c0,0.0853615-0.0375214,0.1473694-0.0814362,0.1845398
		l-0.240593,0.0789642c-0.1059341,0-0.1978226-0.0274048-0.2875366-0.0818214l-0.2121582-0.1750565l-0.2737122,0.3766098
		c0.0853729,0.0858192,0.2187729,0.1917343,0.3354492,0.250145c0.1441956,0.072113,0.2879333,0.0960922,0.452179,0.0960922
		c0.1508789,0,0.4454422-0.0210114,0.6471481-0.2329559c0.1194687-0.123558,0.2019882-0.3287659,0.2019882-0.5650902
		c0-0.1334915-0.034668-0.29776-0.1679001-0.4248009C122.4957657,36.5852013,122.3723526,36.5334129,122.273613,36.496357z"/>
	<path class="st0" d="M119.3700256,36.8971786c0,0.0987778-0.0067368,0.266758-0.1200409,0.3829536
		c-0.0925751,0.099575-0.2187805,0.1199036-0.3179169,0.1199036c-0.0995941,0-0.226265-0.0203285-0.3188324-0.1199036
		c-0.1133575-0.1161957-0.1194153-0.2841759-0.1194153-0.3833504V35.558197h-0.5278473v1.3524017
		c0,0.2187386,0.0275803,0.4894371,0.2535629,0.722393c0.2191772,0.2263298,0.4723358,0.2604179,0.712532,0.2604179
		c0.2394485,0,0.492897-0.0340881,0.7116165-0.2604179c0.226265-0.2329559,0.2540207-0.5036545,0.2540207-0.722393V35.558197
		h-0.5276794V36.8971786z"/>
	<rect x="36.9935722" y="17.1105194" class="st0" width="2.4456985" height="15.9899025"/>
	<polygon class="st0" points="20.550869,36.0943947 21.0473061,36.0943947 21.0473061,37.9326935 21.574297,37.9326935 
		21.574297,36.0943947 22.0709629,36.0943947 22.0709629,35.6494942 20.550869,35.6494942 	"/>
	<path class="st0" d="M30.9450588,23.5721989l-1.6067295-0.6470242c-1.5587559-0.6231003-1.7266541-1.4622574-1.7266541-1.9417019
		c-0.0002842-1.0309448,0.7671871-1.9179478,2.2534752-1.9179478c0.6957436-0.0001717,1.2229061,0.1676941,1.7264824,0.5748539
		c0.3596649,0.3117485,0.5755882,0.6473656,0.7195587,1.0070782l1.965992-1.1508503
		c-0.3355637-0.6714039-0.7914009-1.2225056-1.2227364-1.6061401c-0.5039177-0.431427-1.4870281-1.0784512-3.2133961-1.0784512
		c-2.9971313,0.0004005-4.6753025,2.0623474-4.6750164,4.2197628c0.0005703,2.3972778,1.9425793,3.4998245,3.2614269,4.051096
		l1.534771,0.6469097c1.0548382,0.431654,2.3017864,1.1026592,2.3020725,2.7326107
		c0,1.6060276-1.1506081,2.6851635-2.637352,2.6853352c-0.9588966,0-1.6304283-0.3832359-2.0862617-0.9586029
		c-0.3837643-0.5034828-0.6715317-1.2466011-0.6715317-2.037569l-2.4215412,0.5274639
		c0.0959415,1.1027737,0.4799347,2.1576996,1.3431759,3.1164169c0.8153267,0.9106998,1.918478,1.6059132,3.764431,1.6056271
		c2.9971313-0.0001717,5.1551208-2.0860424,5.1544342-5.1308022C34.7094879,26.4483528,33.8942757,24.7704964,30.9450588,23.5721989
		z"/>
	<path class="st0" d="M40.3807487,35.6494942l-0.9205742,2.2831993h0.5472641l0.1755486-0.431427h0.8622704l0.1714363,0.431427
		h0.5481224l-0.9009895-2.2831993H40.3807487z M40.3366623,37.0973625l0.2845688-0.766758l0.2803421,0.766758H40.3366623z"/>
	<polygon class="st0" points="33.7355156,36.0943947 34.2319527,36.0943947 34.2319527,37.9326935 34.7591171,37.9326935 
		34.7591171,36.0943947 35.2556686,36.0943947 35.2556686,35.6494942 33.7355156,35.6494942 	"/>
	<polygon class="st0" points="37.8239784,36.5186272 36.913681,36.5186272 36.913681,35.6494942 36.3858337,35.6494942 
		36.3858337,37.9326935 36.913681,37.9326935 36.913681,36.9639854 37.8239784,36.9639854 37.8239784,37.9326935 
		38.3518257,37.9326935 38.3518257,35.6494942 37.8239784,35.6494942 	"/>
	<path class="st0" d="M19.7165241,16.9570999l0.0010834,9.6370201c0,0.863081-0.0239277,1.9178352-0.5034618,2.7568779
		c-0.479248,0.815176-1.5583,1.6544456-2.9727459,1.6544456c-1.4149027,0.0002861-2.4936686-0.8386993-2.9733171-1.6536465
		c-0.4798203-0.8390999-0.5039196-1.8939114-0.5039196-2.7568207l-0.001256-9.6370773l-2.4454699,0.0002842l0.0010843,10.2842178
		c0.0001717,1.2706966,0.2640095,2.8050671,1.4872017,4.1473064c0.8391418,0.9108143,2.2538729,1.8698139,4.4359627,1.8690739
		c2.1816311-0.0002861,3.5962486-0.9591179,4.4355621-1.8702164c1.2227345-1.3426952,1.4862881-2.8770084,1.486002-4.1477051
		L22.161993,16.9568138L19.7165241,16.9570999z"/>
	<path class="st0" d="M18.4244595,35.6494942l-0.9202919,2.2831993h0.5473785l0.1751499-0.431427h0.8624973l0.1711521,0.431427
		h0.5485783l-0.9014473-2.2831993H18.4244595z M18.3807716,37.0973625l0.284111-0.766758l0.2803421,0.766758H18.3807716z"/>
	<polygon class="st0" points="7.8422136,25.7684975 7.8420424,23.467083 2.4712827,23.4679394 2.4707117,19.4163284 
		8.0335245,19.4157581 8.0332394,17.1144028 0.0247848,17.1150875 0.026498,33.1051331 2.472425,33.1047325 2.4713969,25.7691822 	
		"/>
	<path class="st0" d="M4.1711535,35.5977631c-0.455549,0-0.7398317,0.1815681-0.8939657,0.3357887
		c-0.2048457,0.2049217-0.352869,0.5374565-0.352869,0.8658791c0,0.3357887,0.1369445,0.6435394,0.3561244,0.8490334
		c0.1709807,0.164669,0.4621732,0.3357887,0.8907104,0.3357887c0.3831358,0,0.6707878-0.1302948,0.8834004-0.3357887
		c0.2465343-0.2395782,0.3562384-0.5511017,0.3562384-0.8558846c0-0.3524055-0.1408849-0.6541061-0.3562384-0.8622818
		C4.8253231,35.7073326,4.5268207,35.5979347,4.1711535,35.5977631z M4.6705041,37.3031387
		c-0.1090188,0.1095695-0.2731466,0.1948738-0.5065465,0.1948738c-0.1777763,0-0.3427036-0.0478477-0.4892423-0.1885338
		c-0.1408849-0.1372032-0.2091858-0.3046722-0.2091858-0.5134163c0-0.2533417,0.1028512-0.4208069,0.2018762-0.5167313
		c0.123524-0.1233864,0.3018718-0.1952133,0.5003786-0.1952133c0.2082148,0,0.3904457,0.0853577,0.5027199,0.1952133
		c0.1030221,0.1022606,0.1989064,0.2770348,0.1989064,0.5132484C4.8694105,37.056366,4.7599916,37.2172089,4.6705041,37.3031387z"/>
	<polygon class="st0" points="127.5590515,33.0079536 127.5586014,30.8188496 121.4927826,30.819706 121.4920349,26.0318851 
		127.3754501,26.0310287 127.3753357,23.8423252 121.4919205,23.8430099 121.4912415,19.9898701 127.557457,19.9891281 
		127.5570526,17.8003101 119.1651764,17.8011665 119.1667252,33.0089226 	"/>
	<path class="st0" d="M0.3558387,35.9265289C0.1505933,36.1252289,0,36.4265289,0,36.7856712
		c0,0.3664474,0.1505933,0.6678619,0.3558387,0.8664474c0.1924532,0.1884766,0.4759935,0.3321342,0.8977916,0.3321342
		c0.1366019,0,0.300844-0.0211258,0.5028913-0.1233864v-0.6060867c-0.2020473,0.1987534-0.3865627,0.2362099-0.5241925,0.2362099
		c-0.2800567,0-0.4445842-0.1436577-0.4926119-0.1916733c-0.1028511-0.0995789-0.1986209-0.2670441-0.1982211-0.5032539
		c0-0.2191391,0.0886313-0.4040794,0.2155249-0.5270081c0.1194695-0.1167641,0.2736034-0.1783142,0.4653143-0.1783142
		c0.2433934,0,0.417972,0.1198463,0.5341864,0.2432327v-0.6095657c-0.2223207-0.0956383-0.3970134-0.1264725-0.5478351-0.1264725
		C0.8531334,35.5977631,0.5585713,35.7315979,0.3558387,35.9265289z"/>
	<polygon class="st0" points="8.4911871,35.6494942 7.9223361,37.0150871 7.3546276,35.6494942 6.9161539,35.6494942 
		6.549293,37.9326935 7.0764551,37.9326935 7.2581725,36.5701866 7.8303924,37.9326935 8.0153074,37.9326935 8.5871277,36.5701866 
		8.7686739,37.9326935 9.2958355,37.9326935 8.9297171,35.6494942 	"/>
	<polygon class="st0" points="15.7816248,35.6494942 15.2532063,35.6490364 15.2536058,37.9326935 16.4900475,37.9326935 
		16.4900475,37.4877357 15.7816248,37.4877357 	"/>
	<rect x="123.9951859" y="35.558197" class="st0" width="0.5282471" height="2.2834847"/>
	<path class="st0" d="M126.136673,35.8356895c-0.2049637,0.1982956-0.3560104,0.4995422-0.3560104,0.8591385
		c0,0.3666191,0.1510468,0.6674652,0.3560104,0.8660507c0.1923981,0.1884193,0.4759903,0.332531,0.8977356,0.332531
		c0.1366577,0,0.3008957-0.0210114,0.5027771-0.1233864v-0.6060867c-0.2018814,0.1983566-0.3863907,0.2360992-0.523735,0.2360992
		c-0.280632,0-0.44487-0.1436577-0.4925003-0.1917343c-0.1032486-0.0991211-0.1990204-0.2670441-0.1990204-0.5031967
		c0-0.2191391,0.0890274-0.4036751,0.216095-0.5270615c0.1196976-0.1165924,0.2733765-0.1781425,0.4651413-0.1781425
		c0.2432785,0,0.4175186,0.1194458,0.5340195,0.2428322v-0.609169c-0.222435-0.0959244-0.396843-0.1266403-0.5474396-0.1266403
		C126.6339111,35.5069237,126.3393478,35.6403008,126.136673,35.8356895z"/>
	<path class="st0" d="M11.3457766,35.6494942l-0.8055048-0.0004578l0.0003996,2.2836571h0.5275621v-0.8008461h0.3217449
		c0.1605873,0,0.4004974-0.0174713,0.5816431-0.2025223c0.0858326-0.0887299,0.1954231-0.2495689,0.1954231-0.5373421
		c0-0.1575851-0.0270691-0.3833466-0.2220354-0.5544701C11.7637491,35.6765022,11.5443983,35.6494942,11.3457766,35.6494942z
		 M11.5404577,36.6145477c-0.0853767,0.0825081-0.2121553,0.0854759-0.2844543,0.0854759h-0.1877699v-0.6192741h0.1776619
		c0.1032505,0,0.2160959,0.0099907,0.2945623,0.0853577c0.0521393,0.0480194,0.0857754,0.1270409,0.0857754,0.2227936
		C11.6262331,36.4879074,11.5885992,36.5669289,11.5404577,36.6145477z"/>
	<rect x="13.3621387" y="35.6494942" class="st0" width="0.5278473" height="2.2831993"/>
	<path class="st0" d="M114.5168915,30.4085503c-0.9270325-1.5491009-1.6468735-3.2706375-2.1586761-5.1658039
		c-0.0552216-0.1243572-0.124321-0.1866512-0.2074738-0.1866512h-0.0412903
		c-0.4979782,0.0834198-1.0514679,0.1111698-1.6600037,0.0834198c1.5214081-0.1523914,2.7006226-0.5638332,3.5378265-1.2349529
		c0.8364563-0.670948,1.2551117-1.5248928,1.2548294-2.5621758c0-1.2585926-0.4741669-2.1852207-1.421524-2.7798309
		c-0.9477615-0.5944939-2.4381638-0.8922558-4.4720001-0.891571c-0.5393829,0-1.417984,0.0141029-2.6351242,0.041853
		c-0.2353973,0-0.5913544,0.0101624-1.0687714,0.0312881c-0.4771347,0.0205555-0.909729,0.0309467-1.2966919,0.0309467
		c-0.4430389,0.0001717-0.8441086-0.013361-1.2034302-0.0411091l-0.1351166,0.0725136
		c-0.0069122,0.0485897,0.038147,0.0726833,0.1351166,0.0723991c0.4837036,0.0280342,0.8537598,0.200695,1.1100006,0.5187263
		c0.2559586,0.3184872,0.3840485,0.8575993,0.3840485,1.6183033l0.001091,10.0410976
		c0.0002823,0.7607059-0.1275787,1.2999878-0.3834229,1.6180191c-0.256134,0.3186016-0.6260147,0.4912643-1.1101761,0.5190125
		l-0.124382,0.0930672l0.124382,0.0728569c0.5396652-0.0415688,0.940567-0.0624084,1.2035446-0.0624084l3.1539459-0.0002861
		c0.2627029,0,0.6640549,0.0207291,1.2036057,0.0618362l0.124382-0.0723991l-0.124382-0.0935249
		c-0.4841614-0.027462-0.8543854-0.2002373-1.1100616-0.5184402c-0.2564087-0.3178596-0.3839874-0.8574276-0.3839874-1.6178474
		l-0.0017166-11.4522514c0-0.2902832,0.0519714-0.4905224,0.1556778-0.6015186
		c0.1036453-0.1105976,0.2867966-0.1662102,0.5497742-0.1662102l0.9129868,0.0413952
		c1.203598,0.02775,2.0920868,0.3007317,2.6663589,0.8192863c0.5742188,0.5186138,0.8615875,1.3452091,0.861702,2.4792709
		c0,1.120018-0.2799988,2.0157566-0.8402863,2.6865902c-0.5600586,0.6710052-1.428093,1.0549259-2.6036606,1.1516495
		l-0.7677536,0.0207253l-0.1038208,0.0726852l0.1038208,0.0726852l1.2448883,0.0412235
		c1.0514145,2.4064713,2.2103577,4.2704067,3.4763794,5.5907784c1.2658539,1.3209991,2.8187866,2.3126602,4.6586838,2.9762993
		l0.1350632-0.0204391l-0.0728149-0.1247559C116.4679794,33.0357018,115.4436951,31.9574242,114.5168915,30.4085503z"/>
	<path class="st0" d="M85.6520996,36.7325706c0.1469345-0.1441154,0.1777725-0.3215714,0.1777725-0.4659157
		c0-0.2532806-0.1031342-0.4176064-0.1987915-0.5101624c-0.1091309-0.102375-0.2907333-0.1982956-0.5820389-0.1982956h-0.8013916
		v2.2834816h0.5276718v-0.9004211l0.6160202,0.9004211h0.6440659l-0.7020874-0.9344482
		C85.4596481,36.8760529,85.5729446,36.8076515,85.6520996,36.7325706z M85.2099152,36.496357
		c-0.0889206,0.0888443-0.2192383,0.0991783-0.3151245,0.0991783H84.775322v-0.6261826h0.1236954
		c0.0682983,0,0.2045059,0.0063362,0.2903366,0.0715408c0.0447693,0.0343742,0.1059341,0.1030617,0.1059341,0.2329559
		C85.2952881,36.3869019,85.2476578,36.4586182,85.2099152,36.496357z"/>
	<path class="st0" d="M70.4394379,35.5069237c-0.4556656,0-0.7402267,0.1816826-0.8939056,0.3353882
		c-0.2051315,0.2054901-0.3527603,0.5374527-0.3527603,0.8662758c0,0.3357887,0.1367798,0.6435432,0.355957,0.8490334
		c0.1711502,0.1646118,0.4627991,0.3357887,0.8907089,0.3357887c0.383194,0,0.670845-0.1305809,0.8836899-0.3357887
		c0.2468185-0.2396927,0.3555527-0.5508156,0.3555527-0.8557701c0-0.3528023-0.1401443-0.6540489-0.3555527-0.862793
		C71.0936661,35.6164932,70.795166,35.5069237,70.4394379,35.5069237z M70.9388428,37.2118416
		c-0.108902,0.1095695-0.27314,0.1953316-0.506546,0.1953316c-0.1774902,0-0.342186-0.0483055-0.4894104-0.1888237
		c-0.1406021-0.136631-0.2089005-0.304554-0.2089005-0.5132446c0-0.2532234,0.1028519-0.4211464,0.2019882-0.5170708
		c0.1232986-0.1228142,0.3017578-0.194931,0.5003815-0.194931c0.2079315,0,0.390213,0.0853615,0.5024872,0.194931
		c0.1031418,0.1028328,0.1989136,0.2774925,0.1989136,0.5138168C71.1377563,36.9655266,71.0285645,37.1259117,70.9388428,37.2118416
		z"/>
	<path class="st0" d="M81.7555161,35.558197l-0.9208603,2.2834816h0.5474396l0.1750336-0.4316521h0.8625565l0.171608,0.4316521
		h0.5481186l-0.9009857-2.2834816H81.7555161z M81.7112579,37.0063515l0.2844009-0.7670441l0.2806244,0.767498
		L81.7112579,37.0063515z"/>
	<polygon class="st0" points="46.587738,36.0943947 47.0840073,36.0943947 47.0840073,37.9326935 47.6111679,37.9326935 
		47.6111679,36.0943947 48.1077194,36.0943947 48.1077194,35.6494942 46.587738,35.6494942 	"/>
	<polygon class="st0" points="74.6220169,37.0305595 73.3827744,35.558197 72.9243164,35.558197 72.9243164,37.8416786 
		73.4519348,37.8416786 73.4519348,36.3626938 74.6916275,37.8416786 75.150032,37.8416786 75.1504288,35.558197 
		74.6220169,35.558197 	"/>
	<polygon class="st0" points="79.0643158,37.0205688 78.4850693,35.558197 77.9163895,35.558197 78.8859634,37.8416786 
		79.2422638,37.8416786 80.2109833,35.558197 79.643158,35.558197 	"/>
	<path class="st0" d="M104.441246,35.5069237c-0.4554291,0-0.7399979,0.1816826-0.8941345,0.3353882
		c-0.2046738,0.2054901-0.3522949,0.5374527-0.3522949,0.8662758c0,0.3357887,0.1363678,0.6435432,0.3555527,0.8490334
		c0.1711502,0.1646118,0.4627457,0.3357887,0.8908768,0.3357887c0.3830261,0,0.6707916-0.1305809,0.8835144-0.3357887
		c0.2459641-0.2396927,0.3560104-0.5508156,0.3560104-0.8557701c0-0.3528023-0.1405945-0.6540489-0.3557205-0.862793
		C105.0957031,35.6164932,104.7967987,35.5069237,104.441246,35.5069237z M104.9408875,37.2118416
		c-0.1094208,0.1095695-0.2735519,0.1953316-0.5069504,0.1953316c-0.177948,0-0.342186-0.0483055-0.4891281-0.1885948
		c-0.1407089-0.1368599-0.2090683-0.3047829-0.2090683-0.5134735c0-0.2532234,0.1031342-0.4211464,0.2021561-0.5170708
		c0.1230164-0.1228142,0.3014755-0.194931,0.5003815-0.194931c0.208046,0,0.3903351,0.0858192,0.5026093,0.194931
		c0.1027374,0.1028328,0.1985016,0.2774925,0.1985016,0.5138168
		C105.139389,36.9655266,105.0306549,37.1259117,104.9408875,37.2118416z"/>
	<path class="st0" d="M97.0129547,36.496357l-0.1714935-0.0653191c-0.1537933-0.0577812-0.2330017-0.0787354-0.2873688-0.1296082
		l-0.0519714-0.1270409l0.0583115-0.1436577l0.223175-0.0788498c0.0643616,0,0.2119827,0.0099907,0.3831329,0.1642113
		l0.2362595-0.3834076c-0.266983-0.1982994-0.5208282-0.2257614-0.6784439-0.2257614
		c-0.2119827,0-0.4037476,0.0445328-0.5649109,0.208744c-0.1365967,0.1404037-0.1989059,0.3115234-0.1989059,0.5132484
		c0,0.1095695,0.0174789,0.2706985,0.1376343,0.3975677c0.0887451,0.0956383,0.2121506,0.1436539,0.3183746,0.1811676
		l0.1883392,0.0653191l0.2670975,0.126358l0.0784607,0.164608c0,0.0853615-0.0376358,0.1473694-0.0817184,0.1845398
		l-0.2401428,0.0789642c-0.1062164,0-0.1981049-0.0274048-0.2877655-0.0822182l-0.2119217-0.1746597l-0.274292,0.3766098
		c0.0856628,0.0858192,0.2193527,0.1917343,0.3357391,0.250145c0.1442566,0.0718269,0.2883377,0.0960922,0.452179,0.0960922
		c0.1508789,0,0.4454422-0.0210114,0.6474304-0.2329559c0.1191864-0.123558,0.2017593-0.3287659,0.2017593-0.5650902
		c0-0.1334915-0.0347214-0.29776-0.1681213-0.4248009C97.2350464,36.5852013,97.1118088,36.5334129,97.0129547,36.496357z"/>
	<path class="st0" d="M100.6258163,35.8356895c-0.2045593,0.1982956-0.3557205,0.4995422-0.3557205,0.8591385
		c0,0.3661652,0.1511612,0.6674652,0.3557205,0.8660507c0.192688,0.1884193,0.4762802,0.332531,0.89814,0.332531
		c0.1365433,0,0.3007812-0.0210114,0.5025482-0.1233864v-0.6060867c-0.201767,0.1983566-0.3863373,0.2360992-0.5239639,0.2360992
		c-0.2802887,0-0.4445877-0.1436577-0.4923248-0.1917343c-0.1028519-0.0991211-0.1987381-0.2670441-0.1987381-0.5031967
		c0-0.2191391,0.0885773-0.4036751,0.2162704-0.5270615c0.1191254-0.1165924,0.2730865-0.1784286,0.4648514-0.1784286
		c0.2433929,0,0.4176331,0.1197319,0.533905,0.2431183v-0.609169c-0.2222061-0.0959244-0.3966141-0.1266403-0.547493-0.1266403
		C101.1235123,35.5069237,100.828949,35.6403008,100.6258163,35.8356895z"/>
	<path class="st0" d="M90.2206116,35.5069237c-0.4558411,0-0.7397232,0.1816826-0.8939667,0.3353882
		c-0.2051926,0.2054901-0.3528748,0.5374527-0.3528748,0.8662758c0,0.3357887,0.1369476,0.6435432,0.3563004,0.8490334
		c0.1708679,0.1642113,0.4621735,0.3357887,0.8905411,0.3357887c0.3833008,0,0.6703873-0.1305809,0.8835678-0.3357887
		c0.2460785-0.2396927,0.3560638-0.5508156,0.3560638-0.8557701c0-0.3528023-0.1407089-0.6540489-0.3560638-0.862793
		C90.8749466,35.6164932,90.5764465,35.5069237,90.2206116,35.5069237z M90.7201309,37.2118416
		c-0.1090164,0.1095695-0.273262,0.1953316-0.5067215,0.1953316c-0.1782837,0-0.3421326-0.0483055-0.4890671-0.1885948
		c-0.140831-0.1368599-0.2091904-0.3047829-0.2091904-0.5134735c0-0.2532234,0.1030807-0.4211464,0.2019958-0.516613
		c0.1234055-0.1232719,0.3017578-0.1953888,0.5002594-0.1953888c0.208046,0,0.3904495,0.0853615,0.5027237,0.194931
		c0.1030197,0.1028328,0.1989059,0.2774925,0.1989059,0.5138168C90.9190369,36.9655266,90.809906,37.1259117,90.7201309,37.2118416z
		"/>
	<path class="st0" d="M94.1105652,36.8971786c0,0.0987778-0.0074234,0.266758-0.1201553,0.3829536
		c-0.0929718,0.099575-0.2192993,0.1199036-0.3184891,0.1199036c-0.0993118,0-0.2260895-0.0203285-0.3186646-0.1199036
		c-0.1132431-0.1161957-0.1194687-0.2841759-0.1194687-0.3833504V35.558197h-0.5279617v1.3518295
		c0,0.2193108,0.0275269,0.4900093,0.2537308,0.7229652c0.2192917,0.2258759,0.472168,0.2604179,0.7123642,0.2604179
		c0.2394485,0,0.4926682-0.0345421,0.7116776-0.2604179c0.2262039-0.2329559,0.2536697-0.5036545,0.2536697-0.7229652
		l0.0004578-1.3518295h-0.5271606V36.8971786z"/>
	<rect x="87.1893845" y="35.558197" class="st0" width="0.5277902" height="2.2834847"/>
	<path class="st0" d="M80.0818634,30.870409c-3.2381821,0.0003986-5.5646439-2.4844666-5.5649261-5.6992054
		c-0.0005722-3.3518295,2.2340546-5.7917595,5.5405426-5.7920456c0.86689,0,2.4402695,0.1593018,4.1279221,1.6868782
		l-0.0003433-2.7361507c-1.322731-0.8433819-2.6680756-1.0940952-4.0593948-1.0939236
		c-2.0979691,0.0003986-3.9221039,0.5022259-5.49543,1.9841805c-1.2768707,1.2086887-2.4396439,3.1467361-2.4393539,5.9510612
		c0.0001678,2.1434822,0.6618195,4.0811882,2.4408417,5.7455101c0.8894577,0.8433819,2.6229019,2.0970078,5.3820648,2.0968933
		c1.04879,0,2.6452332-0.2283325,4.1729813-1.1405735l-0.0002823-2.7588177
		C83.3199844,29.9353294,81.9059448,30.8701229,80.0818634,30.870409z"/>
	<path class="st0" d="M54.1988945,36.987793c0,0.0991211-0.0067368,0.2669868-0.1199837,0.3836365
		c-0.0925713,0.0992928-0.2187805,0.1195602-0.3179741,0.1195602c-0.0997124,0-0.2262039-0.0202675-0.3187752-0.1195602
		c-0.1131325-0.1166496-0.1194725-0.2845154-0.1194725-0.3836365v-1.3382988H52.794899v1.3525162
		c0,0.2186813,0.0275841,0.4889793,0.2535591,0.7219353c0.2190094,0.2262192,0.4723396,0.2603073,0.7124786,0.2603073
		c0.2395096,0,0.492382-0.0340881,0.7116776-0.2603073c0.2262611-0.2329559,0.253727-0.5032539,0.253727-0.7219353v-1.3525162
		h-0.5274467V36.987793z"/>
	<path class="st0" d="M56.3280449,35.9265289c-0.205246,0.1987-0.3561249,0.5-0.3561249,0.8591423
		c0,0.3664474,0.1508789,0.6678619,0.3561249,0.8664474c0.1923981,0.1884766,0.4758224,0.3321342,0.8976212,0.3321342
		c0.1367722,0,0.3010139-0.0207291,0.5028915-0.1233864v-0.6060867c-0.2018776,0.1987534-0.3863907,0.2362099-0.5240211,0.2362099
		c-0.2803421,0-0.4445839-0.1436577-0.4926682-0.1916733c-0.1027946-0.0995789-0.1986237-0.2670441-0.1986237-0.5032539
		c0-0.2191391,0.0890312-0.4040794,0.2159843-0.5270081c0.119297-0.1167641,0.2735443-0.1783142,0.4652557-0.1783142
		c0.2434502,0,0.4179726,0.1198463,0.5340729,0.2432327v-0.6095657c-0.2223206-0.0956383-0.3964424-0.1264725-0.5474358-0.1264725
		C56.8249969,35.5977631,56.5307198,35.7315979,56.3280449,35.9265289z"/>
	<polygon class="st0" points="115.9167175,35.558197 115.3479233,36.9242439 114.7799301,35.558197 114.3414001,35.558197 
		113.9747086,37.8416786 114.5018692,37.8416786 114.6834183,36.4793434 115.2560349,37.8416786 115.4406128,37.8416786 
		116.012085,36.4793434 116.1938019,37.8416786 116.7209702,37.8416786 116.3549652,35.558197 	"/>
	<path class="st0" d="M50.3103676,35.5979347c-0.4554329,0-0.7402878,0.1813965-0.8939629,0.3356171
		c-0.2048454,0.2049217-0.3528709,0.5374565-0.3528709,0.8658791c0,0.3357887,0.1367722,0.6435394,0.3556671,0.8490334
		c0.1714935,0.164669,0.4628029,0.3357887,0.8911667,0.3357887c0.3833084,0,0.6707878-0.1302948,0.8835144-0.3357887
		c0.2456779-0.2395782,0.3560104-0.5511017,0.3557243-0.8556023c0-0.3526878-0.1404839-0.6543884-0.3557243-0.8625641
		C50.9645386,35.7077904,50.6660347,35.5979347,50.3103676,35.5979347z M50.8096046,37.3031387
		c-0.1087341,0.1095695-0.2731476,0.1948738-0.5064316,0.1950455c-0.1783485,0-0.3424187-0.0480194-0.4890709-0.1887054
		c-0.1408844-0.1368065-0.2091866-0.3046722-0.2091866-0.5134163c0-0.2533417,0.1025085-0.4208069,0.2017059-0.5167313
		c0.1234093-0.1233864,0.3015862-0.1952133,0.5004921-0.1952133c0.2080994,0,0.3905029,0.0853577,0.5028915,0.1952133
		c0.1028519,0.1022606,0.1986771,0.2770348,0.1986771,0.5135307C51.0086823,37.056366,50.8993797,37.2172089,50.8096046,37.3031387z
		"/>
	<path class="st0" d="M93.8146286,17.2342491c-4.5606308,0.0004559-7.912796,3.4209156-7.912056,7.8897362
		c0.0004044,4.4688187,3.3529739,7.8884773,7.913887,7.8880806c4.5609131-0.0007439,7.912796-3.4212608,7.912056-7.8900795
		C101.7281113,20.6533375,98.3755417,17.2336769,93.8146286,17.2342491z M93.8161697,30.8685818
		c-3.2609634,0.0005131-5.5870285-2.3705578-5.5875931-5.7448826c-0.0004044-3.3743248,2.3253098-5.7457962,5.5863419-5.746254
		c3.2609634-0.0003986,5.5873108,2.3706722,5.587822,5.744997C99.4030304,28.496767,97.0774231,30.8684101,93.8161697,30.8685818z"
		/>
	<path class="st0" d="M108.3304062,36.7325706c0.1468811-0.1441154,0.1771469-0.3215714,0.1771469-0.4659157
		c0-0.2532806-0.102684-0.4176064-0.1986237-0.5101624c-0.1091309-0.102375-0.290451-0.1982956-0.5822144-0.1982956h-0.8008194
		v2.2834816h0.5276718v-0.9004211l0.6157379,0.9004211h0.6440659l-0.7022018-0.9344482
		C108.1377792,36.8760529,108.2510223,36.8076515,108.3304062,36.7325706z M107.8881607,36.496357
		c-0.0891418,0.0888443-0.2191772,0.0991783-0.3151169,0.0991783h-0.1194763v-0.6261826h0.1234131
		c0.0683594,0,0.2048492,0.0063362,0.2906189,0.0715408c0.0447769,0.0343742,0.1059341,0.1030617,0.1059341,0.2329559
		C107.9735336,36.3869019,107.925621,36.4586182,107.8881607,36.496357z"/>
	<path class="st0" d="M58.6558723,15.1017284L58.652504,9.2673178l2.9322014,3.0679989l1.6895905,1.7665844l6.9905052,7.3127127
		L70.2562332,7.5066714L74.4866714,0l-6.6762466,6.4544287l0.0018234,3.3607931l0.0029755,5.7028589l-2.8660126-2.9982834
		l-1.6891365-1.7671556L56.2026367,3.370785l0.008625,14.0402374l-0.8336601,1.0054798
		c-3.2164841-2.6853352-7.7446175-2.6159048-10.9588165,0.4201202c-3.4856873,3.2929039-3.5775185,8.326643-0.3503571,11.742363
		c3.2276192,3.4153194,8.2594452,3.6088238,11.7451324,0.3166027c3.2515488-3.0713673,3.5487938-7.6570644,0.9555283-11.0316753
		l1.8884964-1.4012203L58.6558723,15.1017284z M54.2658272,29.2575874c-2.4924126,2.3537712-5.9825554,2.2209625-8.419632-0.3579998
		c-2.4370193-2.579134-2.3717995-6.070507,0.120327-8.4247932c2.3050423-2.1773396,5.4623604-2.2225037,7.8522072-0.1773434
		l-3.7792816,4.5590897l4.768158-3.5373936C56.8055801,23.837244,56.6045609,27.048214,54.2658272,29.2575874z"/>
	<polygon class="st0" points="60.4407196,36.5186272 59.5302505,36.5186272 59.5302505,35.6494942 59.0022888,35.6494942 
		59.0022888,37.9326935 59.5302505,37.9326935 59.5302505,36.9639854 60.4411201,36.9639854 60.4407196,37.9326935 
		60.9683952,37.9326935 60.9683952,35.6494942 60.4411201,35.6494942 	"/>
	<path class="st0" d="M69.7367859,31.8223324c0.4106598,0.1014042,0.7739792-0.0087357,1.0762482-0.3057556
		c0.1793213-0.1763725,0.2757187-0.3955116,0.3186646-0.6402874c0-0.0972939,0-0.1947575-0.0002823-0.292223l-0.0592804-0.2346687
		c-0.15979-0.5163288-0.7764969-0.8626804-1.2989731-0.732214c-0.3244324,0.080965-0.5931778-0.0099907-0.8015671-0.2709827
		c-0.1163254-0.1466255-0.1467667-0.326767-0.1724091-0.5043945c-0.0504227-0.3517761,0.0588837-0.6712341,0.2256927-0.9730492
		c0.0832596-0.1497097,0.2182083-0.2468891,0.3822784-0.2959347c0.3325958-0.0992928,0.6033478,0.0056534,0.8300018,0.3168888
		c0.1468277,0.2015533,0.3318024,0.2631035,0.5682831,0.1894474c0.2481918-0.0773087,0.3734818-0.3308201,0.2967911-0.599575
		c-0.0680161-0.2375813-0.323288-0.3794117-0.5638809-0.3225422c-0.1273575,0.0301476-0.2093048,0.1149368-0.3041611,0.1938438
		c-0.2493286,0.2085762-0.6402359,0.1941872-0.8762054-0.0173569c-0.2515564-0.2251911-0.3130035-0.5894127-0.1298599-0.8706741
		c0.0748062-0.115221,0.0905685-0.2310143,0.0830917-0.3574848c-0.0161591-0.2713833-0.1011429-0.5237522-0.2060471-0.7717819
		l0.0057678-0.1209888c0.0667572-0.1248131,0.2028503-0.1483383,0.3315659-0.062521
		c0.1469421,0.0981503,0.3007889,0.0957527,0.45121,0.0211258c0.1500244-0.0741119,0.2341461-0.2030945,0.2429962-0.3710175
		c0.0131302-0.2557373-0.1661835-0.4584312-0.4181976-0.4805279c-0.2414551-0.0215836-0.4465866,0.1542187-0.4844513,0.4056168
		l-0.0754929,0.170435l-0.2602386,0.0291195c-0.0954895-0.0601234-0.1571655-0.2178822-0.1251831-0.3194008
		c0.0657883-0.2097187-0.010849-0.3520031-0.2178116-0.4053326c-0.0954819-0.0249519-0.1207199-0.0742264-0.0836639-0.1642685
		c0.0739594-0.1780281,0.2808609-0.2665863,0.4689178-0.1959c0.1479645,0.0558987,0.2958755,0.0640621,0.44561,0.0138168
		c0.2653809-0.0886135,0.4165421-0.2758923,0.4566879-0.54916c0.0366058-0.2491703-0.1026764-0.5260353-0.3269424-0.6461678
		c-0.2428741-0.1302948-0.4878693-0.1198463-0.7139587,0.0402546c-0.2455063,0.1743736-0.3203201,0.4349079-0.232254,0.7595615
		c0.0636749,0.234499-0.0746994,0.4514103-0.3041611,0.4800167c-0.0825729,0.0101051-0.1375122-0.0077667-0.1777725-0.0922699
		c-0.0897217-0.1870499-0.2766876-0.2512264-0.4747391-0.1805401l-0.1216965,0.0101051
		c-0.1609879-0.0306606-0.2594986-0.1657524-0.2492218-0.3306484c0.01017-0.1549625,0.1351166-0.273838,0.29879-0.2832603
		c0.1982193-0.0117035,0.3506393-0.1560459,0.3750305-0.3554859c0.0218124-0.1777439-0.1042786-0.3602829-0.2853165-0.4126968
		c-0.1762924-0.0511036-0.3690262,0.0367699-0.4538345,0.2114296c-0.0708694,0.145483-0.0467682,0.2819462,0.0485992,0.408987
		c0.0649338,0.0863304,0.0539093,0.2083473-0.0243835,0.2809753c-0.073494,0.0683441-0.1153564,0.0615501-0.2173538-0.02421
		c-0.2082138-0.1750603-0.4439011-0.2650452-0.7179031-0.2068634c-0.1413956,0.030262-0.2783432,0.0849037-0.4201965,0.1119671
		c-0.276062,0.0528164-0.5458908,0.0558987-0.7833481-0.1368046l0.0077133-0.1246414l0.1190643-0.0637779
		c0.2383118-0.139431,0.3903351-0.4564915,0.3504715-0.7282734c-0.0739517-0.5069084-0.5426407-0.7928505-1.0270844-0.6267548
		c-0.3141479,0.1081409-0.5329285,0.4754467-0.4807892,0.8005009c0.0573349,0.3593121,0.2600708,0.5787354,0.6165924,0.6559315
		c0.0860596,0.0187283,0.1049652,0.087759,0.0446625,0.1508503l-0.1155319,0.1173344
		c-0.2449951,0.1931038-0.5076904,0.3060417-0.8245239,0.180542l-0.0846329-0.1329803l0.0288963-0.1112251
		c0.0460281-0.1646671-0.0504265-0.3379002-0.2126122-0.3801517c-0.1677818-0.0433941-0.3384781,0.0626354-0.3749695,0.2338123
		c-0.0349503,0.1629562,0.0784645,0.3239117,0.2497902,0.3543453c0.1604156,0.0284348,0.210556,0.1301231,0.1350594,0.2734947
		c-0.0881729,0.1674652-0.2328873,0.2739525-0.3926163,0.3638229c-0.1599007,0.0905552-0.3248291,0.1731186-0.4816475,0.2688694
		c-0.1090202,0.0661755-0.1877136,0.1593018-0.1654968,0.303072l-0.0166206,0.0484753
		c-0.1203232,0.1231022-0.2585258,0.215313-0.4348755,0.2339268c-0.4183693,0.044651-0.7364616-0.1949291-0.8149261-0.6126518
		c-0.0928001-0.4933758-0.5305328-0.7781754-0.9980736-0.6412582c-0.328598,0.096323-0.5176811,0.3298512-0.5579453,0.6632404
		c-0.0368919,0.305584,0.0818367,0.5602379,0.3406487,0.7340412c0.2735481,0.1833954,0.5633125,0.1883068,0.8425102,0.0205555
		c0.4450417-0.2670441,1.0108681-0.0085659,1.0783119,0.5039387l-0.0292969,0.1059151
		c-0.050827,0.0926685-0.1151848,0.179285-0.1595612,0.2750931c-0.1077614,0.2333565-0.0687561,0.462944,0.0481453,0.6799698
		c0.1021652,0.1892776,0.1001663,0.3891735,0.0593338,0.586216c-0.1059341,0.5089645-0.6595383,0.7144566-1.11446,0.4210911
		c-0.2190056-0.1409721-0.4035797-0.1328068-0.6062546,0.0276356c-0.1939964,0.1534767-0.2228928,0.4397049-0.0655022,0.651535
		c0.1507072,0.2032089,0.4380722,0.252655,0.6398354,0.1197319c0.1218109-0.0800495,0.1688652-0.2042351,0.2369385-0.3212852
		c0.1718369-0.2946205,0.5209389-0.4092712,0.8332024-0.2884541c0.3156929,0.1222439,0.4809647,0.4334812,0.4227715,0.7752075
		l0.0194168,0.2327843c0.1025658,0.2901688,0.2979317,0.5177574,0.5126572,0.731699l0.0442009,0.1228161
		c-0.0105667,0.1370335-0.1277504,0.2109737-0.2740059,0.1831112c-0.2210045-0.041853-0.423851,0.0629215-0.5072289,0.2623615
		c-0.0856628,0.2041225-0.0166206,0.4330807,0.1674957,0.5560684c0.1539612,0.103117,0.3535538,0.1015186,0.5010643-0.0045109
		c0.168869-0.1211033,0.2342567-0.29702,0.186512-0.4922333l-0.0116501-0.1276131
		c0.0858917-0.0624065,0.1777229-0.132122,0.2778893-0.1556473c0.0971985-0.022953,0.1646996,0.0721149,0.174408,0.1590157
		c0.0301514,0.2724113,0.2069588,0.3645077,0.4446983,0.3914013l0.0718384,0.1068859
		c-0.0182724,0.1949291-0.1616707,0.3227119-0.3751411,0.3304214c-0.4246521,0.0152435-0.7290916,0.4154949-0.6145935,0.8224258
		c0.0307236,0.1089993,0.1065063,0.2043514,0.1549339,0.3088379c0.1195259,0.2595634,0.3155785,0.4187508,0.59832,0.468998
		l0.0568771,0.0026817l0.1408844-0.0006866l0.0560799-0.0004539l0.0553398-0.0182724
		c0.3094673-0.0767937,0.5034599-0.274807,0.5723305-0.5807343c0.0676193-0.3015308-0.0230713-0.5612068-0.2552109-0.7696686
		l-0.0961151-0.1077423c-0.0834885-0.1259003-0.0563049-0.3152332,0.0587692-0.4039631l0.0812607-0.0117054
		c0.2885056,0.1804276,0.5860443,0.2265053,0.9027023,0.0767956l0.0629883,0.0295773
		c0.0557938,0.1364613-0.0215836,0.3092957-0.151619,0.3743286l-0.1652145,0.1297245
		c-0.1375122,0.1726627-0.0902863,0.4269161,0.0946884,0.5536709c0.1746368,0.1198463,0.4245377,0.0704002,0.539093-0.1063156
		c0.124382-0.192131,0.0716705-0.4313107-0.1210098-0.5488739c-0.1279221-0.0778809-0.1576157-0.2243919-0.0587616-0.326767
		l0.1140976-0.0280342c0.148201,0.0588665,0.29953,0.0787373,0.4568634,0.0670319l0.0695572,0.0104485l-0.0147858,0.0833626
		l-0.0418091,0.0528145c-0.0974808,0.1390305-0.1108398,0.2890263-0.0415726,0.4409599
		c0.0680771,0.15028,0.1933136,0.2325573,0.3566971,0.2466602c0.2215805,0.0195847,0.4225998-0.1398869,0.4612045-0.3580551
		c0.0391769-0.2219372-0.0914307-0.4209785-0.3174057-0.4838982l-0.0468903-0.1366348l0.1789246-0.1738033
		c0.2373352-0.1499939,0.5059738-0.2057781,0.7822571-0.2170258c0.2480774-0.0101624,0.4545822-0.0858173,0.5908966-0.3064976
		l0.0864029-0.0694294c0.486557-0.1541042,1.0149231,0.284914,0.950676,0.7918224
		c-0.0208435,0.1639252-0.0157623,0.3223705,0.0334091,0.4796734
		C69.0494919,31.4540558,69.3232117,31.7202415,69.7367859,31.8223324z M65.5107498,29.9491463
		c-1.8026085,0.0267792-3.2152252-1.4382763-3.1959229-3.1695175c0.0219879-1.8942528,1.4843445-3.21451,3.2035217-3.2175922
		c1.7936935,0.0139313,3.2085419,1.4440994,3.1767349,3.2434578C68.6627045,28.61199,67.2107315,29.9237957,65.5107498,29.9491463z"
		/>
	<polygon class="st0" points="109.8571243,37.8416786 111.1484451,37.8416786 111.1484451,37.3968925 110.3849106,37.3968925 
		110.3849106,36.8897591 111.1106949,36.8897591 111.1106949,36.4448013 110.3849106,36.4448013 110.3849106,36.0031548 
		111.1484451,36.0031548 111.1484451,35.558197 109.8575211,35.558197 	"/>
	<polygon class="st0" points="62.3199081,37.9326935 63.6111183,37.9326935 63.6111183,37.4877357 62.8475838,37.4877357 
		62.8474693,36.980999 63.5734825,36.980999 63.5734825,36.5360985 62.8474693,36.5360985 62.8474693,36.0943947 
		63.6111183,36.0943947 63.6111183,35.6494942 62.3194542,35.6494942 	"/>
	<path class="st0" d="M65.9158707,36.5873718l-0.1714325-0.0650902c-0.1539688-0.0581818-0.2334061-0.0787392-0.2873688-0.1298409
		l-0.0516815-0.1269264l0.0578461-0.143486l0.2228928-0.0791931c0.064476,0,0.2122726,0.0102768,0.3834839,0.1644974
		l0.236763-0.3836365c-0.2675476-0.1981812-0.5211029-0.2257614-0.6790085-0.2257614
		c-0.2117004,0-0.4037552,0.0443649-0.5646286,0.2089767c-0.1367722,0.1401711-0.1987305,0.3112946-0.1987305,0.5132446
		c0,0.1095695,0.0170135,0.2705841,0.1371689,0.3971672c0.089035,0.0958099,0.2124405,0.1441154,0.3183823,0.1815681
		l0.1886215,0.065094l0.2668076,0.1265831l0.0786362,0.1642113c0,0.0858154-0.0375137,0.1476517-0.0818863,0.1853371
		l-0.2401428,0.0785065c-0.1059341,0-0.197937-0.0276337-0.2872543-0.0821609l-0.2124405-0.1746025l-0.274231,0.3763275
		c0.0857773,0.0857582,0.2192993,0.1919594,0.3353958,0.2501411c0.1448288,0.0718269,0.2885056,0.0959244,0.4527512,0.0959244
		c0.1508789,0,0.4454422-0.0207291,0.6471481-0.2329559c0.1194687-0.1231041,0.2020416-0.3285942,0.2020416-0.5648041
		c0-0.1333809-0.0348358-0.2977638-0.1683502-0.424633C66.1379089,36.6764984,66.0146713,36.6246567,65.9158707,36.5873718z"/>
</g>
</svg>
