<?xml version="1.0" encoding="utf-8"?>
<!-- Generator: Adobe Illustrator 28.0.0, SVG Export Plug-In . SVG Version: 6.00 Build 0)  -->
<svg version="1.1" id="레이어_1" xmlns="http://www.w3.org/2000/svg" xmlns:xlink="http://www.w3.org/1999/xlink" x="0px"
	 y="0px" width="113.3858261px" height="59.5275574px" viewBox="0 0 113.3858261 59.5275574"
	 style="enable-background:new 0 0 113.3858261 59.5275574;" xml:space="preserve">
<style type="text/css">
	.st0{fill:#00344D;}
</style>
<g>
	<path class="st0" d="M3.9031472,0.8398315l-2.280513,9.154664c-0.0822349,0.34793-0.2672633,0.5323925-0.6162601,0.5323925
		C0.61626,10.5268879,0,10.3834171,0,9.8920155c0-0.0819836,0.0205587-0.1639671,0.040616-0.2664461l2.280513-9.0726805
		C2.4239225,0.184463,2.6089511,0,2.9990652,0c0.3695555,0,0.9451995,0.1229753,0.9451995,0.573385
		C3.9442647,0.6553685,3.9237061,0.7373521,3.9031472,0.8398315z M2.7523606,18.514286
		c-0.5957012,0-0.7802283-0.2254543-0.7802283-0.6758652V9.0521841c0-0.4504099,0.184527-0.6963606,0.7802283-0.6963606
		s0.8012886,0.2459507,0.8012886,0.6963606v8.7862368C3.5536492,18.2888317,3.348062,18.514286,2.7523606,18.514286z
		 M17.9337177,4.1371703H5.3201942c-0.4106727,0-0.6162601-0.1639674-0.6162601-0.7168565
		c0-0.5323932,0.2055874-0.7168562,0.6162601-0.7168562h3.821414V0.7373521c0-0.4504096,0.1845274-0.6758644,0.7596693-0.6758644
		c0.5550852,0,0.7601709,0.2254548,0.7601709,0.6758644v1.9661055h2.0132504V0.7168562
		c0-0.4299137,0.1850281-0.6553685,0.7396116-0.6553685c0.5545845,0,0.7601719,0.2254548,0.7601719,0.6553685v1.9866014h3.7592354
		c0.4111748,0,0.6368198,0.184463,0.6368198,0.7168562C18.5705376,3.9732029,18.3448925,4.1371703,17.9337177,4.1371703z
		 M17.9337177,14.6230669H9.6139574l-1.6642532,3.6657648c-0.1228509,0.2664471-0.2667618,0.4099178-0.5134664,0.4099178
		c-0.3489966,0-0.9858155-0.3074379-0.9858155-0.6963615c0-0.102478,0.0205588-0.2254543,0.0822349-0.3484287l1.376431-3.0308924
		H5.3201942c-0.4106727,0-0.6162601-0.1639671-0.6162601-0.716856c0-0.5323935,0.2055874-0.716857,0.6162601-0.716857h3.2457695
		l0.8629646-1.8841219H5.8752794c-0.4111743,0-0.6162596-0.1639671-0.6162596-0.716856
		c0-0.5323935,0.2050853-0.716856,0.6162596-0.716856h4.2110271l0.8629646-1.8636265h-5.629077
		c-0.4106727,0-0.6162601-0.1639671-0.6162601-0.716856s0.2055874-0.7373524,0.6162601-0.7373524H7.539031l-0.1439109-1.331233
		c0-0.532393,0.452292-0.6553683,0.9040818-0.6553683c0.4312315,0,0.5957012,0.2049589,0.6368189,0.5938811l0.1644697,1.3927202
		h4.9917564l0.2672634-1.4542079c0.061676-0.3684263,0.2462034-0.5528893,0.6573772-0.5528893
		c0.3901138,0,0.8830223,0.1024795,0.8830223,0.5733852l-0.2462034,1.433712h2.2800112
		c0.4111748,0,0.6368198,0.184463,0.6368198,0.7373524s-0.2256451,0.716856-0.6368198,0.716856h-5.3001366L11.7711182,9.87152
		h5.5874577c0.4106731,0,0.6368179,0.1844625,0.6368179,0.716856c0,0.5528889-0.2261448,0.716856-0.6368179,0.716856h-6.2242765
		l-0.8629646,1.8841219h7.6623831c0.4111748,0,0.6368198,0.1844635,0.6368198,0.716857
		C18.5705376,14.4590998,18.3448925,14.6230669,17.9337177,14.6230669z M6.6143904,2.5599866
		c-0.3489966,0-0.4929075-0.1639671-0.5751424-0.4914014L5.8136034,1.2082577
		C5.7930446,1.1262741,5.7724862,1.0442905,5.7724862,0.9628069c0-0.4509096,0.5545835-0.6143768,0.924139-0.6143768
		c0.3494983,0,0.4934092,0.1634672,0.5751429,0.4914014L7.4979138,1.720155
		C7.5184727,1.8021384,7.539031,1.884122,7.539031,1.9661056C7.539031,2.4165154,6.9844475,2.5599866,6.6143904,2.5599866z
		 M16.023262,18.6577568c-0.1644697,0-0.3078794-0.0819836-0.4517908-0.2254543l-2.3216305-2.2940407
		c-0.1434088-0.1429701-0.2256441-0.2864418-0.2256441-0.4299126c0-0.3479309,0.5340252-0.8193359,0.862463-0.8193359
		c0.1644697,0,0.3083811,0.0819836,0.4522924,0.2254553l2.3211279,2.2735434
		c0.1439114,0.142971,0.2261467,0.2864418,0.2261467,0.4504089C16.8862267,18.1658554,16.3522015,18.6577568,16.023262,18.6577568z
		 M17.5436039,1.2082577l-0.2055874,0.8398316c-0.0822353,0.3274343-0.2462025,0.5118973-0.5751419,0.5118973
		c-0.3901138,0-0.9246407-0.1639671-0.9246407-0.6348728c0-0.0614877,0-0.1434712,0.0205584-0.2254547l0.2261457-0.8598276
		c0.0822353-0.3279342,0.2261467-0.4914014,0.5751419-0.4914014c0.3700581,0,0.9246407,0.1634672,0.9246407,0.6143768
		C17.5847206,1.0442905,17.5641632,1.1262741,17.5436039,1.2082577z"/>
	<path class="st0" d="M37.7824059,4.3826208H24.5731812v3.8097363c0,1.1467695-0.0822353,1.4127159-0.4106731,2.6009779
		L22.2109337,17.79743c-0.061676,0.2254543-0.1850281,0.3274345-0.4317322,0.3274345
		c-0.3489971,0-1.2119617-0.1839638-1.2119617-0.614378c0-0.0819836,0.0205593-0.2044582,0.061676-0.3274326l1.869339-6.6971579
		c0.2878208-1.0442896,0.4111748-1.5566874,0.4111748-2.4780025V4.3826208h-1.4997845
		c-0.3906155,0-0.5957012-0.1839628-0.5957012-0.8393316s0.1845264-0.8398316,0.5957012-0.8398316h1.4997845V0.9013192
		c0-0.4509096,0.1434078-0.5938809,0.8419037-0.5938809c0.6779366,0,0.8218479,0.1839631,0.8218479,0.5938809v1.8021383h13.2092247
		c0.4106712,0,0.6162605,0.184463,0.6162605,0.8398316S38.2136383,4.3826208,37.7824059,4.3826208z M37.1044693,18.247839h-7.498415
		c-1.9515743,0-3.0813007-1.0032978-3.0813007-3.0513868v-1.9046183c0-0.3894224,0.1850281-0.5528889,0.8629646-0.5528889
		s0.8218479,0.1224747,0.8218479,0.5118971v1.5561876c0,1.2292538,0.6979923,1.7821426,1.7871037,1.7821426h7.1077995
		c0.4106712,0,0.5957031,0.1839638,0.5957031,0.8193359C37.7001724,18.0433807,37.5357018,18.247839,37.1044693,18.247839z
		 M37.1044693,9.1341677h-9.7167511c-0.3906155,0-0.5957012-0.1844625-0.5957012-0.8398314s0.1845264-0.8188357,0.5957012-0.8188357
		h9.7167511c0.3901138,0,0.5957031,0.1634669,0.5957031,0.8188357S37.5151405,9.1341677,37.1044693,9.1341677z"/>
	<path class="st0" d="M57.8131142,4.6080756H45.6724396l-0.3901138,3.6862607c0,0.3894215,0.2256432,0.5938807,0.6779366,0.5938807
		h9.593399c2.0749245,0,2.8551521,1.1062784,2.8551521,2.8469286v3.6867609c0,1.6791639-0.8424072,2.8259325-2.8962708,2.8259325
		H42.7962265c-0.4111748,0-0.6157608-0.1844616-0.6157608-0.8393307c0-0.6353722,0.204586-0.8193359,0.6157608-0.8193359h12.2028503
		c1.2736359,0,1.7048683-0.5323925,1.7048683-1.6181755v-2.7854414c0-0.9828024-0.3901138-1.6381712-1.6637535-1.6381712H44.8300323
		c-0.8825188,0-1.3959846-0.4094181-1.3959846-1.2492495c0-0.0819836,0-0.1844625,0.0200577-0.2869425l0.4934082-4.4031167
		h-2.4449844c-0.4111748,0-0.6162605-0.184463-0.6162605-0.8398316s0.1845284-0.8393316,0.6162605-0.8393316h2.6094551
		l0.2256432-1.9456096c0.0411186-0.3894219,0.2055855-0.5943808,0.9236374-0.5943808
		c0.6378212,0,0.8223495,0.1434712,0.8223495,0.4714054l-0.2266464,2.0685849h11.9561462
		c0.411171,0,0.6167603,0.1839631,0.6167603,0.8393316S58.2443428,4.6080756,57.8131142,4.6080756z"/>
	<path class="st0" d="M75.6119461,17.3880119l-3.1630325,0.859827c-0.0822372,0.0204964-0.1644745,0.0409927-0.2266464,0.0409927
		c-0.4111786,0-0.7190552-0.8803234-0.7190552-1.2492504c0-0.2254543,0.1233521-0.347929,0.3499985-0.4094181l3.1219177-0.8808222
		c1.0479889-0.2869425,1.3769302-0.5733852,1.3769302-1.9661055v-7.495997c0-1.2902408-0.6578751-2.437011-2.4449844-2.437011
		h-4.0876694v11.5306873c0,1.8431301-0.8022919,2.5599861-2.2193375,2.5599861h-3.204155
		c-2.0548668,0-3.2673302-1.188261-3.2673302-3.2973385V5.8368292c0-2.3345318,1.2335243-3.7067564,3.6785088-3.7067564h9.3868027
		c2.3015747,0,3.8630371,1.3312328,3.8630371,3.8297317v8.3353281
		C78.0569305,16.0567799,77.6658096,16.8346233,75.6119461,17.3880119z M68.1145325,3.8502276h-3.0406799
		c-1.6647568,0-2.3005753,0.942311-2.3005753,2.437011v8.028389c0,1.5156965,0.841404,2.0070972,1.9094543,2.0070972h2.4249268
		c0.6979904,0,1.0068741-0.4299135,1.0068741-1.1467695V3.8502276z"/>
	<path class="st0" d="M4.1904678,33.4192963l-2.6089511,4.7310524c-0.1233523,0.1639671-0.2261459,0.2664452-0.3901142,0.2664452
		c-0.3083807,0-1.1708438-0.471405-1.1708438-0.8193359c0-0.102478,0.040616-0.2254562,0.1228509-0.368927l2.506659-4.5670815
		c0.4929078-0.8803253,0.5545838-1.3107376,0.5545838-2.4575081v-7.7414474c0-0.4299145,0.1434097-0.5938797,0.8419046-0.5938797
		c0.6779361,0,0.8424058,0.1844616,0.8424058,0.5938797v7.9873981C4.8889627,31.7196369,4.8272867,32.2520294,4.1904678,33.4192963z
		 M18.652771,37.5974579c0,0.3479309-0.883522,0.8193359-1.1914024,0.8193359c-0.1644688,0-0.2672634-0.0819855-0.3695545-0.2664452
		l-2.6089516-4.7310524c-0.6578789-1.1877632-0.7190533-1.6996593-0.7190533-2.9694042v-7.9873981
		c0-0.4094181,0.1845264-0.5938797,0.862463-0.5938797c0.6984949,0,0.8424063,0.1639652,0.8424063,0.5938797v7.7414474
		c0,1.1467705,0.061676,1.5771828,0.5545835,2.4575081l2.5061569,4.5670815
		C18.6116543,37.3720016,18.652771,37.4949799,18.652771,37.5974579z"/>
	<path class="st0" d="M34.8410034,30.8388138H20.4198189c-0.5340252,0-0.7802296-0.2249546-0.7802296-0.9008198
		c0-0.6758633,0.2462044-0.921814,0.7802296-0.921814h14.4211845c0.5345268,0,0.8012886,0.2459507,0.8012886,0.921814
		C35.642292,30.6138592,35.3755302,30.8388138,34.8410034,30.8388138z"/>
	<path class="st0" d="M53.6592484,32.7024384h-2.3426895c-0.3901138,0-0.6578789-0.0204926-1.0269318-0.18396l-8.7509956-3.8297329
		v9.1956539c0,0.40942-0.1855278,0.5938835-0.8634644,0.5938835c-0.6573792,0-0.8419037-0.1639671-0.8419037-0.5938835V22.4215031
		c0-0.4094181,0.1845245-0.5938816,0.8419037-0.5938816c0.6779366,0,0.8634644,0.1639671,0.8634644,0.5938816v4.4646034
		l9.2444038,4.0141945c0.2045822,0.0819836,0.3891106,0.1434727,0.615757,0.1434727h2.2604561
		c0.4101715,0,0.6157608,0.1639671,0.6157608,0.8603268C54.2750092,32.5799637,54.0904808,32.7024384,53.6592484,32.7024384z
		 M50.1873322,24.1416569h-0.76017c-0.2266464,0-0.4111748-0.1839619-0.4111748-0.4094181v-0.716856
		c0-0.2249546,0.1644707-0.4094181,0.4111748-0.4094181h0.76017c0.2467079,0,0.4101715,0.1844635,0.4101715,0.4094181v0.716856
		C50.5975037,23.957695,50.4340401,24.1416569,50.1873322,24.1416569z M52.8780174,24.1416569h-0.76017
		c-0.2467041,0-0.4101715-0.1839619-0.4101715-0.4094181v-0.716856c0-0.2249546,0.1634674-0.4094181,0.4101715-0.4094181h0.76017
		c0.225647,0,0.4101715,0.1844635,0.4101715,0.4094181v0.716856C53.2881889,23.957695,53.1036644,24.1416569,52.8780174,24.1416569z
		"/>
	<path class="st0" d="M71.0870209,37.9043961H57.4470673c-0.4111748,0-0.6167603-0.1634674-0.6167603-0.8188362
		s0.1845245-0.8398323,0.6167603-0.8398323H70.347908c0.4723511,0,0.6989975-0.2254524,0.6989975-0.6758614v-9.9125137
		c0-0.4709053-0.2266464-0.6963596-0.6989975-0.6963596H57.4470673c-0.3901138,0-0.5957031-0.1639671-0.5957031-0.8398323
		c0-0.6548672,0.1845284-0.8393307,0.5957031-0.8393307h13.6399536c1.109169,0,1.6647568,0.5528889,1.6647568,1.6381721v11.3667183
		C72.7517776,37.392498,72.1961899,37.9043961,71.0870209,37.9043961z"/>
	<path class="st0" d="M88.9901505,30.65485h-4.7656097c-0.2667618,0-0.4312286,0.1224766-0.4934082,0.3274345l-1.6226349,6.2262497
		c-0.2045822,0.8188362-0.6368179,1.1057816-1.4992828,1.1057816h-2.4660416c-0.4101715,0-0.5957031-0.1639671-0.5957031-0.8193359
		c0-0.6963615,0.1644745-0.8398323,0.5957031-0.8398323h1.8492813c0.3911209,0,0.5756454-0.1634674,0.6578827-0.511898
		l1.6426926-6.22575c0.185524-0.6963615,0.534523-0.9423122,1.294693-0.9423122h4.9100266
		c1.5193405,0,2.3005676-0.9828033,2.3005676-2.4780025v-1.8841228c0-0.3689251-0.0611725-0.6963596-0.6989975-0.6963596H76.3771286
		c-0.4101715,0-0.5956955-0.1844635-0.5956955-0.8398323c0-0.6758633,0.1644669-0.8398304,0.5956955-0.8398304h14.4422455
		c1.334816,0,1.6637573,0.4099178,1.6637573,1.6386719v3.0513878C92.4831314,28.6887455,91.6407242,30.65485,88.9901505,30.65485z"
		/>
	<path class="st0" d="M106.1130524,38.723732h-3.5330887c-0.5144653,0-0.6368179-0.1229744-0.6368179-0.9008179
		c0-0.6348724,0.1022949-0.7578506,0.4512863-0.7578506h3.2462769c0.9246368,0,1.6226349-0.552887,1.6226349-1.5976791v-8.4992943
		c0-1.0442905-0.697998-1.5971794-1.6226349-1.5971794h-6.6560135v4.0546875c0,1.1677647-0.1022873,1.4951992-0.5335236,2.6214752
		l-2.4249268,6.287735c-0.0822296,0.2249565-0.1845245,0.3274345-0.411171,0.3274345
		c-0.3068771,0-1.231514-0.2454491-1.231514-0.6348724c0-0.102478,0.0401077-0.2249527,0.1022873-0.3684235l2.3206329-6.0007973
		c0.3911133-1.0032997,0.5144653-1.4952011,0.5144653-2.4165154v-3.8707237h-1.5815201
		c-0.411171,0-0.6167603-0.1434708-0.6167603-0.8193359c0-0.6758633,0.1855316-0.8603268,0.6167603-0.8603268h1.5815201v-2.293541
		c0-0.471405,0.1845245-0.5938797,0.8414001-0.5938797c0.5957031,0,0.8223495,0.1224747,0.8223495,0.5938797v2.293541h7.1484146
		c1.5203476,0,2.7939835,0.8398304,2.7939835,2.8264332v9.3801193
		C108.9270935,37.6384506,107.9001617,38.723732,106.1130524,38.723732z M110.1806717,22.4829903h-0.76017
		c-0.225647,0-0.411171-0.1639671-0.411171-0.4094181v-0.6963596c0-0.2459507,0.1644669-0.4099178,0.411171-0.4099178h0.76017
		c0.2467041,0,0.4111786,0.1639671,0.4111786,0.4099178v0.6963596
		C110.5918503,22.2985268,110.4273758,22.4829903,110.1806717,22.4829903z M112.2556,31.7811241
		c-0.2055893,0-0.3289413-0.1229744-0.4312363-0.3484287l-0.7190475-1.4947014
		c-0.348999-0.7373524-0.3700562-0.8808231-0.3700562-1.7411499v-4.4646053c0-0.4299126,0.2055817-0.5323925,0.8012848-0.5323925
		c0.5756454,0,0.7802277,0.0819836,0.7802277,0.5323925v4.198658c0,0.7783451,0.0210648,0.9213161,0.2878265,1.4537086
		l0.6779327,1.3517284c0.0611725,0.1229763,0.1032944,0.2459507,0.1032944,0.3279343
		C113.3858261,31.4326954,112.5835342,31.7811241,112.2556,31.7811241z M112.8723602,22.4829903h-0.76017
		c-0.2467041,0-0.4111786-0.1639671-0.4111786-0.4094181v-0.6963596c0-0.2254562,0.1644745-0.4099178,0.4111786-0.4099178h0.76017
		c0.225647,0,0.4101715,0.1639671,0.4101715,0.4099178v0.6963596
		C113.2825317,22.3190231,113.0980072,22.4829903,112.8723602,22.4829903z"/>
	<path class="st0" d="M9.5728397,42.28302L1.23252,47.3415031c-0.1644697,0.102478-0.2878219,0.1434708-0.431733,0.1434708
		C0.4106729,47.4849739,0,46.8091087,0,46.4611816c0-0.2254562,0.1228509-0.3894234,0.3695554-0.5328941l8.3814373-5.0789833
		c0.1439104-0.0819817,0.2878218-0.1434708,0.4111738-0.1434708c0.2256451,0,0.4106731,0.1434708,0.6162605,0.4919014
		c0.1228504,0.2044601,0.1845264,0.3889236,0.1845264,0.5323944C9.9629536,41.9555855,9.8195448,42.1395454,9.5728397,42.28302z
		 M17.1735477,52.8918915l-5.2590199,6.1847572c-0.1845274,0.2049599-0.3489971,0.3279343-0.5545845,0.3279343
		c-0.3901138,0-1.0680504-0.511898-1.0680504-0.9013176c0-0.142971,0.0822353-0.3069382,0.2261467-0.4709053l4.6833754-5.4684029
		H1.417047c-0.4517903,0-0.6779361-0.1839638-0.6779361-0.7983398c0-0.5943832,0.2261459-0.7988396,0.6779361-0.7988396H15.89991
		c0.9657574,0,1.4792252,0.6963577,1.4792252,1.3312302C17.3791351,52.5229645,17.3174591,52.7279243,17.1735477,52.8918915z
		 M14.2361584,48.611248H4.4782901c-0.452292,0-0.6779363-0.1839638-0.6779363-0.7983398
		c0-0.5943794,0.2256444-0.7988396,0.6779363-0.7988396h9.7578678c0.4517899,0,0.6984949,0.2044601,0.6984949,0.7988396
		C14.9346533,48.4272842,14.6879482,48.611248,14.2361584,48.611248z M18.5705376,47.0755577
		c-0.2050858,0.3684235-0.4106731,0.5323906-0.6368198,0.5323906c-0.1233521,0-0.2667618-0.0409889-0.4106731-0.1229744
		l-7.0050049-3.9936981c-0.2467051-0.1434708-0.3906164-0.3274345-0.3906164-0.5528908
		c0-0.3684235,0.3700571-1.0442886,0.7807302-1.0442886c0.1233521,0,0.2672634,0.0614891,0.4106731,0.142971l6.9849491,3.9322128
		c0.2667618,0.1639671,0.4312305,0.3279343,0.4312305,0.5943794C18.7350063,46.7066307,18.6733303,46.8705978,18.5705376,47.0755577
		z"/>
	<path class="st0" d="M36.0855598,59.1996231H23.7804165c-2.0132504,0-3.2868881-0.9827995-3.2868881-3.2153549v-2.600975
		c0-0.40942,0.1845284-0.5938835,0.862463-0.5938835c0.6573792,0,0.8424072,0.1639671,0.8424072,0.5938835v2.2735405
		c0,1.3517303,0.8424053,1.8841248,2.1160431,1.8841248h11.7711182c0.3901138,0,0.5956993,0.1634674,0.5956993,0.7988396
		C36.6812592,59.0151634,36.4962311,59.1996231,36.0855598,59.1996231z M35.4692993,45.0069733H21.8494015
		c-0.4111748,0-0.5957012-0.1844635-0.5957012-0.8398323s0.1639671-0.8398323,0.5957012-0.8398323h13.6198978
		c0.4106712,0,0.6162605,0.1844635,0.6162605,0.8398323S35.9005318,45.0069733,35.4692993,45.0069733z"/>
	<path class="st0" d="M55.2939186,59.1996231H42.9887733c-2.0137482,0-3.2873878-0.9827995-3.2873878-3.2153549v-2.600975
		c0-0.40942,0.1845284-0.5938835,0.8624649-0.5938835c0.6573753,0,0.8424034,0.1639671,0.8424034,0.5938835v2.2735405
		c0,1.3517303,0.8424072,1.8841248,2.1160431,1.8841248h11.7716217c0.3891106,0,0.5956993,0.1634674,0.5956993,0.7988396
		C55.8896179,59.0151634,55.7040901,59.1996231,55.2939186,59.1996231z M54.6771545,45.0069733H41.0572586
		c-0.4111748,0-0.5957031-0.1844635-0.5957031-0.8398323s0.1639709-0.8398323,0.5957031-0.8398323h13.6198959
		c0.4101715,0,0.6167641,0.1844635,0.6167641,0.8398323S55.108387,45.0069733,54.6771545,45.0069733z"/>
	<path class="st0" d="M61.4254303,59.5275574c-0.1644707,0-0.2667618-0.102478-0.3911171-0.2459488l-1.7449837-2.2120552
		c-0.6167641-0.7778435-0.6378212-1.0647888-0.6378212-1.9661064V42.5494652c0-0.4304123,0.1644669-0.5938797,0.8634644-0.5938797
		c0.6779366,0,0.841404,0.1634674,0.841404,0.5938797v12.2265472c0,0.7783432,0,0.9423103,0.3911171,1.4132156l1.6426926,2.0480881
		c0.1243553,0.1634674,0.2065887,0.2864456,0.2065887,0.3889236C62.5967751,58.954174,61.7122498,59.5275574,61.4254303,59.5275574z
		 M74.9019165,58.6262398h-7.9095917c-1.4792175,0-3.0817986-0.880825-3.0817986-3.2973404v-2.4165115
		c0-0.4099197,0.1644707-0.6143799,0.8424034-0.6143799c0.6578827,0,0.8624649,0.1839638,0.8624649,0.6143799v2.0275917
		c0,1.4947014,1.0068741,2.0275917,1.8292236,2.0275917h7.4572983c0.4111786,0,0.5957031,0.142971,0.5957031,0.8188362
		C75.4976196,58.4417763,75.3331528,58.6262398,74.9019165,58.6262398z M74.8597946,45.1709404H64.6917572
		c-0.411171,0-0.6167603-0.1639671-0.6167603-0.8398323c0-0.6553688,0.1845245-0.8193359,0.6167603-0.8193359h10.1680374
		c0.4111786,0,0.6167679,0.1639671,0.6167679,0.8193359C75.4765625,45.0069733,75.2920303,45.1709404,74.8597946,45.1709404z"/>
</g>
</svg>
