<?xml version="1.0" encoding="utf-8"?>
<!-- Generator: Adobe Illustrator 28.0.0, SVG Export Plug-In . SVG Version: 6.00 Build 0)  -->
<svg version="1.1" id="레이어_1" xmlns="http://www.w3.org/2000/svg" xmlns:xlink="http://www.w3.org/1999/xlink" x="0px"
	 y="0px" viewBox="0 0 73.7007904 14.1732283" style="enable-background:new 0 0 73.7007904 14.1732283;" xml:space="preserve">
<style type="text/css">
	.st0{fill:#00344D;}
</style>
<g>
	<g>
		<g>
			<g>
				<path class="st0" d="M73.6923599,11.7125492c-0.0261383,0.3646774-0.261879,0.6740236-0.6117325,0.754837
					c-0.2941132,0.0679207-0.5753555,0.0226402-0.8025055-0.2036591c-0.5276413-0.5257969-1.0557861-1.0510931-1.5829239-1.5772886
					c-0.1420288-0.1417294-0.2987747-0.2682285-0.4481125-0.4420395c-0.0348511,0.0449753-0.0612946,0.0880146-0.0961304,0.1228447
					c-0.6210556,0.6207228-1.2427292,1.2409382-1.8654022,1.8601379c-0.4371719,0.4348307-1.1286316,0.3055897-1.3818207-0.2567558
					c-0.127449-0.2831535-0.063118-0.6678305,0.1551285-0.8857031c0.6293488-0.628438,1.2609329-1.2546434,1.8913116-1.8819656
					c0.0396118-0.0393915,0.0768967-0.0812197,0.1010056-0.1068039c-0.0847931-0.0943165-0.1605682-0.1867037-0.2446594-0.2708683
					c-0.5425415-0.5428534-1.0846786-1.086112-1.6315689-1.6245999c-0.2416306-0.2378798-0.3300781-0.5189948-0.2533798-0.8432651
					c0.0680771-0.288033,0.3047485-0.5466094,0.6844711-0.611897c0.0362701,0.0072155,0.067276-0.0048661,0.0960464-0.0257802
					c0.027153,0,0.0541992,0,0.0813522,0c0.0307007,0.026701,0.0667648,0.034214,0.1062775,0.0293407
					c0.1908798,0.0410161,0.3460922,0.137363,0.4845886,0.2761474c1.0679474,1.0695567,2.1344757,2.1406436,3.2118454,3.2008739
					c0.6192322,0.609149,1.2394867,1.2171812,1.8518143,1.8332272c0.1473083,0.1482258,0.2370758,0.3205204,0.2526779,0.5295601
					c0.0002975,0.0051775,0.0006027,0.0102539,0.0009079,0.0153303c0,0.0128937,0,0.0258894-0.0000992,0.0387831
					c0.0003052,0.0096445,0.0005035,0.0191879,0.0008087,0.0288324c0.0000992,0.0084267,0.0000992,0.0167513,0.000206,0.0250702
					C73.6923599,11.7020922,73.6923599,11.7073717,73.6923599,11.7125492z"/>
				<path class="st0" d="M51.1300011,5.7197428c-0.0047531,0.0187821-0.0095253,0.0374627-0.014389,0.0562377
					c-0.9678497-0.0005007-1.9356995-0.0010152-2.9036484-0.0015159c0-0.0182743,0-0.0364475-0.000103-0.0547218
					C49.1845741,5.7197428,50.1572876,5.7197428,51.1300011,5.7197428z"/>
				<path class="st0" d="M46.0810318,5.7197428c-0.0006104,0.0194926-0.0011139,0.0388842-0.0016212,0.0582681
					c-0.0993881-0.0014143-0.1987801-0.0039525-0.2980652-0.0039525c-0.5651283-0.0003042-1.1302567,0.0001016-1.6953735,0.0002031
					c-0.0001106-0.0181727-0.0001106-0.036346-0.0001106-0.0545187C44.7508812,5.7197428,45.416008,5.7197428,46.0810318,5.7197428z
					"/>
				<path class="st0" d="M55.6487961,5.7695913c0.0003014-0.0166502,0.0006065-0.0332055,0.0008087-0.0498486
					c0.4162979,0,0.8324966,0,1.2486916,0c0,0.013401,0,0.0267954,0,0.0402036
					c-0.0006065,0.0034518-0.0012054,0.006897-0.0018234,0.010457C56.4805794,5.7700992,56.0646858,5.7698889,55.6487961,5.7695913z
					"/>
				<path class="st0" d="M67.8897171,5.7490835c-0.0395126,0.0048733-0.0755768-0.0026398-0.1062775-0.0293407
					c0.0407333,0,0.081459,0,0.1221848,0C67.8966064,5.72756,67.8848572,5.7338548,67.8897171,5.7490835z"/>
				<path class="st0" d="M67.7020874,5.7197428C67.673317,5.7406569,67.6423111,5.7527385,67.606041,5.745523
					c-0.0042572-0.0085211-0.0084076-0.0171509-0.012558-0.0257802C67.6296463,5.7197428,67.6658173,5.7197428,67.7020874,5.7197428
					z"/>
				<path class="st0" d="M2.0376272,5.7680683c0.0999966,0.0083251,0.199892,0.0117769,0.2992806-0.0068021
					C2.3726716,5.7646165,2.408334,5.7678585,2.444006,5.7711143c0.0053601,0.0005074,0.0106285,0.0010152,0.0158968,0.001523
					c0.2687948,0.0122843,0.6215596,0.1452818,1.0337133,0.3929009C3.8000805,5.9720321,4.1361384,5.8277578,4.508162,5.7812667
					c0.1538959-0.0024366,0.3077912-0.0048733,0.4616866-0.0074115c0.3055625,0.0365491,0.5978522,0.1189871,0.8634968,0.2753353
					c0.7354364,0.4332066,1.1248865,1.0723052,1.1310668,1.9298782c0.004559,0.6266184-0.0005069,1.2532291,0.0023298,1.8799419
					c0.001317,0.3098536-0.1213737,0.5575743-0.3724289,0.7337198c-0.4687786,0.3290424-1.132586,0.0765495-1.2830372-0.4827499
					c-0.0286717-0.1067028-0.0436563-0.2156391-0.0431595-0.32691c0.0023303-0.5815344,0.0034447-1.1630688,0.0048628-1.7446022
					c0.0004053-0.1871109-0.1304917-0.387013-0.2907701-0.4443746c-0.186316-0.0667019-0.3769884-0.0138073-0.5076833,0.140409
					c-0.0516701,0.0609145-0.0762892,0.130053-0.0760865,0.2106638c0.0012159,0.6379747,0.0019345,1.2758627,0.0011144,1.913743
					c-0.0007091,0.4586887-0.3409204,0.8532076-0.784168,0.9128094c-0.4585459,0.0617275-0.8884201-0.2220421-1.0143435-0.6693535
					c-0.0204749-0.0725899-0.0199683-0.1469059-0.0198669-0.221324C2.581682,9.2521896,2.582087,8.623251,2.582999,7.9944062
					C2.583303,7.774199,2.4571769,7.6109471,2.2492716,7.5650578c-0.2122524-0.046803-0.4061668,0.0474119-0.5003885,0.2427459
					C1.7071419,7.8943028,1.6857647,7.9848628,1.685866,8.0814133c0.0009118,1.185606,0.0006078,2.371213,0.0020262,3.5568199
					c0.0005066,0.4670143-0.2535882,0.794838-0.6951134,0.8911781c-0.3480126,0.0759478-0.7400967-0.1251736-0.8964238-0.4597988
					c-0.0626024-0.1341219-0.0959441-0.2724934-0.0956402-0.4231558C0.0035517,10.4044018-0.00506,9.1623478,0.0051727,7.9202929
					C0.0110489,7.202404,0.3197518,6.6220951,0.8940992,6.1902018C1.2304608,5.9371076,1.6108938,5.7860384,2.0376272,5.7680683z"/>
				<path class="st0" d="M26.3993206,12.1433191c-0.2706089,0.1876183-0.5615807,0.3190861-0.8835564,0.3802109
					c-1.077776,0.2048702-2.1234341-0.4292469-2.4872513-1.4462214c-0.0789242-0.2205114-0.1154976-0.4485369-0.1155987-0.6821451
					c-0.0003052-1.25109-0.0004978-2.5021806,0-3.7532711c0.0003033-0.502954,0.3697948-0.8725042,0.866333-0.8686461
					c0.4362564,0.0034518,0.8161831,0.3842716,0.8162842,0.8204222c0.0005074,1.2307854,0,2.4614692,0.0004063,3.6922545
					c0,0.1999025,0.1424465,0.39818,0.3244057,0.4553385c0.1872272,0.0587826,0.3885384-0.0101528,0.5043392-0.1714754
					c0.0584583-0.0814228,0.0677795-0.173912,0.0675774-0.2698603c-0.0009117-0.6221371-0.0020275-1.2442808-0.0014095-1.8663235
					c0.0004978-0.3889418,0.2426376-0.7251916,0.6111145-0.8539252c0.4264297-0.1489367,0.9248028,0.0664988,1.1142597,0.4782834
					c0.0529766,0.1151295,0.0776958,0.2332029,0.0773926,0.3592968c-0.0019245,0.6266108-0.0018234,1.2532148-0.0028362,1.8799343
					c-0.0003052,0.225893,0.1480198,0.4133081,0.349947,0.4404154c0.253376,0.0339088,0.4349308-0.0871086,0.5130424-0.3156414
					c0.0351562-0.1029453,0.0318127-0.2003078,0.030901-0.3027534c-0.005167-0.6016293-0.0280628-1.2039757,0.0125637-1.8045969
					c0.0265446-0.3916826,0.3859043-0.7073231,0.7968311-0.7312832c0.4004936-0.0233507,0.7664394,0.2529998,0.8531628,0.6459007
					c0.0111446,0.0502548,0.0187435,0.1024389,0.0188446,0.1537085c0.0005169,0.7212324,0.0239105,1.4435816-0.0086002,2.163393
					c-0.0279732,0.6211281-0.3300915,1.1290569-0.814167,1.5204353c-0.4747562,0.3839664-1.026207,0.526-1.6292267,0.4670143
					c-0.3329163-0.032691-0.6382771-0.1547241-0.9214478-0.3314791
					C26.4603119,12.1821012,26.4280949,12.1614923,26.3993206,12.1433191z"/>
				<path class="st0" d="M55.6487961,5.7695913c0.4158897,0.0002975,0.8317833,0.0005078,1.2476768,0.0008121
					c0.0058746-0.0011168,0.0118523-0.0022335,0.0177307-0.0033503c0.0301895-0.0007105,0.0603828-0.001421,0.0906754-0.0020304
					c0.0061798,0.0008049,0.0124626,0.0016246,0.0187416,0.0024366c0.8936996,0.0897408,1.7127075,0.7385931,1.9295197,1.7378001
					c0.0292816,0.1348252,0.0425529,0.2713761,0.0426559,0.4089422c0.000515,1.2371817,0.0006065,2.4742613,0.0007057,3.711442
					c0,0.3613272-0.1296806,0.6632624-0.4655342,0.8220472c-0.5925827,0.2802086-1.2058372-0.1232519-1.2182999-0.7330093
					c-0.0163994-0.7974844-0.0041504-1.5953608-0.0039482-2.3931427c0-0.3785868,0.0006065-0.7571726,0.0008087-1.1357584
					c0.000103-0.0922861,0.0015221-0.1848764-0.0335236-0.2730002c-0.0025444-0.005794-0.0051765-0.0115738-0.0078125-0.0172591
					c-0.1377869-0.3903632-0.4205513-0.6055956-0.8234787-0.6714854c-0.4028206-0.0657878-0.8258057,0.134419-1.0302582,0.480916
					c-0.1054688,0.1784878-0.1417389,0.3749385-0.1423454,0.5764651c-0.0030403,1.1314936-0.010334,2.2630892,0.0017242,3.3943806
					c0.0050621,0.4692478-0.4116402,0.9145288-0.9235764,0.8642807c-0.3949203-0.0387821-0.7611732-0.4113789-0.7622871-0.818696
					c-0.0033417-1.3118095-0.016716-2.623807,0.0060806-3.9352102c0.0095215-0.5473132,0.2632141-1.0193095,0.6577377-1.402863
					c0.3597565-0.3496513,0.7907448-0.5614324,1.2953873-0.6118898C55.5808144,5.7679672,55.6149559,5.7700992,55.6487961,5.7695913
					z"/>
				<path class="st0" d="M48.2119637,5.7744646c0.9679489,0.0005007,1.9357986,0.0010152,2.9036484,0.0015159
					c0.2855034,0.0411243,0.5570259,0.1240702,0.8133469,0.2583876c0.7468872,0.3912768,1.2297478,1.2295671,1.1350174,2.0620704
					c-0.0950317,0.8348389-0.5540848,1.4266272-1.3237534,1.7752628c-0.0246315,0.0110664-0.0493507,0.0217266-0.0738678,0.0331993
					c-0.0036469,0.0017252-0.0057755,0.0065985-0.0123596,0.0145178c0.0743637,0.0698423,0.1509552,0.1379719,0.2233963,0.2101564
					c0.3276482,0.3270111,0.6558037,0.6534138,0.98032,0.9833689c0.2505417,0.2547264,0.303627,0.6450891,0.1380806,0.9629631
					c-0.1651421,0.3169603-0.5083923,0.4897556-0.8643074,0.4421406c-0.2007027-0.0269041-0.35783-0.1255865-0.4972458-0.2647839
					c-0.6325912-0.6318836-1.2662201-1.2625551-1.8997345-1.8935318c-0.0959435-0.0956364-0.1931038-0.1900549-0.2889481-0.2857924
					c-0.0339394-0.0339165-0.0710106-0.0452805-0.1208649-0.0451794c-0.4114342,0.0007114-0.8237839,0.0254765-1.2341042-0.0099487
					c-0.3812408-0.0328941-0.7280388-0.325489-0.7564087-0.8158541c-0.0204659-0.3528996,0.261898-0.7216377,0.6321983-0.8214369
					c0.0884476-0.0238581,0.1772079-0.034214,0.2678757-0.034214c0.8573151,0.0004063,1.7145309,0.0006094,2.5718575,0.0014219
					c0.2633057,0.0003042,0.4716034-0.1852837,0.4753532-0.4253893c0.003952-0.2579818-0.1865196-0.4563541-0.4569244-0.4573693
					c-0.8662338-0.0033503-1.7325668-0.0025382-2.5987968-0.0001016C47.8746872,7.4668832,47.60783,7.3186569,47.438839,7.0174327
					c-0.2813492-0.5012279,0.0348511-1.1269255,0.6060562-1.2164702
					C48.1006203,5.7922244,48.1563416,5.7832971,48.2119637,5.7744646z"/>
				<path class="st0" d="M60.5511627,5.7648125c0.0122604,0.0009208,0.0245171,0.0018349,0.0367889,0.0028501
					c0.0062675,0.0003047,0.0124512,0.0006089,0.0187302,0.0009136c0.2173309,0.0119801,0.4016075,0.0994945,0.5538826,0.2511725
					c1.1116142,1.1074324,2.2184677,2.2195349,3.3346367,3.322298c0.5942078,0.5870161,1.1946945,1.167738,1.7788696,1.7647038
					c0.4435501,0.4534101,0.2549133,1.2111912-0.3560028,1.384799c-0.3209763,0.0911694-0.6158981,0.0165415-0.8618927-0.234726
					c-0.5131531-0.5242739-1.0345078-1.0404263-1.554657-1.5577965c-0.1372795-0.136652-0.2824516-0.2654877-0.425415-0.3992968
					c-0.0408287,0.0121832-0.063221,0.0485287-0.0910683,0.0762453c-0.6340332,0.6302652-1.2672462,1.261344-1.9005585,1.8924217
					c-0.3054581,0.3044729-0.7937927,0.3285351-1.1213379,0.0549183c-0.3310928-0.2765465-0.4030266-0.7740183-0.1615944-1.1230602
					c0.0503502-0.072793,0.1184349-0.1296473,0.1807404-0.1917801c0.4870148-0.4867105,0.9750443-0.9724054,1.4595261-1.4616528
					c0.1429558-0.1442671,0.2752686-0.2989912,0.4234924-0.4381819c0.0156021-0.0082235-0.0008011-0.0203047-0.0152969-0.0344162
					c-0.6416206-0.6257992-1.2763519-1.258502-1.9048004-1.8976007c-0.2373772-0.241426-0.2979622-0.6085396-0.15662-0.9268203
					c0.1284561-0.2893457,0.4420204-0.4937148,0.7455559-0.4861007C60.5393181,5.7729344,60.5448799,5.7744646,60.5511627,5.7648125
					z"/>
				<path class="st0" d="M33.0344582,7.8281083c-0.0086136-0.3021379,0.1018219-0.5529041,0.3440628-0.7343359
					c0.274456-0.2056823,0.5794106-0.250556,0.8929787-0.1016192C34.5745277,7.136014,34.7657051,7.37744,34.7740135,7.719883
					c0.0127678,0.5293503,0.0068893,1.05931,0.0068893,1.5890665c0.000103,0.4687405-0.002533,0.937582-0.003746,1.4064236
					c0,0.0174618-0.0057755,0.0364475,0.0106354,0.0506601c0.0029373,0.0117769,0.0080032,0.0152292,0.0168304,0.0041628
					c0.460865-0.014823,0.8509216,0.3722916,0.8636894,0.8573771c0.0126724,0.4807205-0.392086,0.8925047-0.8760605,0.8922005
					c-0.6604652-0.000515-1.3213348-0.0129957-1.9814835,0.0026398c-0.972723,0.0228424-1.9244652-0.6248856-2.1791668-1.656682
					c-0.1731453-0.7016382-0.1506538-1.3961697,0.2463951-2.0338535c0.327961-0.5268059,0.8033161-0.8529034,1.4093723-0.993515
					c0.2039452-0.0474124,0.4079933-0.0434527,0.6132545-0.0229449c0.037281,0.0037565,0.0732613,0.020102,0.1098251,0.0306535
					C33.0328369,7.8572392,33.0328369,7.8572392,33.0344582,7.8281083z M32.251606,10.1571894
					c-0.0162086,0.118371,0.0030403,0.2452765,0.0805435,0.3586874c0.0848007,0.1239614,0.1956367,0.2085314,0.3538895,0.1987848
					c0.161293-0.0099487,0.2738533-0.0981741,0.3388939-0.2426443c0.0954399-0.2120848,0.0901718-0.4259977-0.010128-0.6343269
					c-0.0727463-0.1511698-0.1956367-0.249548-0.3670616-0.2453918c-0.1736526,0.0042706-0.289959,0.1110744-0.3634109,0.2639647
					C32.2406654,9.947134,32.2492752,10.0450039,32.251606,10.1571894z"/>
				<path class="st0" d="M14.1868639,5.7722311c0.3582458,0.029036,0.6648207,0.3288388,0.7315865,0.7172728
					c0.0083084,0.0485287,0.0129681,0.0983777,0.0130701,0.1476169c0.0008106,0.4305668,0.0007086,0.861032-0.0002031,1.2915988
					c-0.0005064,0.2414265,0.0819626,0.4477243,0.2543993,0.6186924c0.8463745,0.839407,1.6920395,1.6797276,2.5387192,2.5190268
					c0.2868195,0.2843781,0.3574352,0.6732178,0.1798306,1.0072346c-0.2705059,0.5087404-0.9248924,0.6078291-1.3367329,0.2046738
					c-0.4678669-0.4579782-0.9385595-0.9132156-1.3911381-1.3864231c-0.0506573-0.0529957-0.1009083-0.0796967-0.1724358-0.0496454
					c-0.0690966,0.0289345-0.0732498,0.0847731-0.0737562,0.1498508c-0.0023203,0.2656908,0.0186415,0.5320911-0.0120564,0.7970715
					c-0.043869,0.3793983-0.4114351,0.7393036-0.8221607,0.7388973c-0.4362574-0.0005074-0.810915-0.3381786-0.8462744-0.7381868
					c-0.0327234-0.3706675-0.0101309-0.7430601-0.0109415-1.1147423c-0.0028267-1.3454065-0.0024319-2.690814-0.002634-4.0362277
					c-0.0001011-0.4656873,0.2968493-0.8070135,0.7582321-0.8698573c0.0574446-0.0078177,0.1170168,0.0006089,0.1756878,0.001421
					C14.1756182,5.7711143,14.181201,5.7717233,14.1868639,5.7722311z"/>
				<path class="st0" d="M44.0859718,5.7742615c0.5651169-0.0001016,1.1302452-0.0005074,1.6953735-0.0002031
					c0.0992851,0,0.1986771,0.0025382,0.2980652,0.0039525c0.3343353,0.059196,0.5771828,0.2344279,0.6969376,0.5575814
					c0.1751709,0.4726996-0.1392059,1.0102735-0.639595,1.1006303c-0.1161041,0.0209141-0.2326164,0.0295439-0.350647,0.0291309
					c-0.4296608-0.0015159-0.8593407,0.0022402-1.2889137-0.0021253c-0.3158951-0.0031471-0.6135559,0.3064022-0.6100082,0.6378803
					c0.012764,1.2010384,0.0085106,2.4022808,0.0069885,3.6035223c-0.0006065,0.4572601-0.3426399,0.8197041-0.7939835,0.8540268
					c-0.4149933,0.0315742-0.8131561-0.2970619-0.8793106-0.7294559c-0.0111465-0.0729961-0.0093231-0.1483278-0.0093231-0.2225428
					c-0.0005074-1.2463188-0.0191383-2.4929419,0.0059776-3.7386513c0.0178299-0.8794079,0.478302-1.5052137,1.2582169-1.9016614
					C43.6678391,5.8687811,43.8758354,5.8173079,44.0859718,5.7742615z"/>
				<path class="st0" d="M11.0099697,9.14783c0,0.8608284,0.0037489,1.7217588-0.0016203,2.5825806
					c-0.002634,0.4143295-0.3591576,0.7818499-0.7656279,0.8086519c-0.4394989,0.0290365-0.8347244-0.273304-0.898653-0.6986933
					c-0.0329266-0.2187862-0.009716-0.4410238-0.0099287-0.6616373C9.3326206,9.7477398,9.3339376,8.3167477,9.334444,6.8856463
					c0-0.1483202-0.0152893-0.2969527,0.015501-0.4445701c0.0840902-0.403358,0.4778051-0.7042775,0.8734255-0.6660028
					c0.4468946,0.0432496,0.7819395,0.3936119,0.7879162,0.823874c0.0002031,0.0158381,0.0005074,0.0315742,0.0005074,0.0473108
					c0,0.8338232,0,1.6677475,0,2.5015717C11.0111856,9.14783,11.0105782,9.14783,11.0099697,9.14783z"/>
				<path class="st0" d="M35.0749168,13.3289261c0.0043564-0.2304611,0.0853157-0.4300594,0.2488251-0.5939207
					c0.5387878-0.5401115,1.0771675-1.0806293,1.617981-1.6187115c0.5585442-0.5555439,1.1186066-1.1095648,1.6800842-1.6620693
					c0.2421417-0.2381706,0.5331154-0.321928,0.8582306-0.2154284c0.3336258,0.1094437,0.534935,0.3524866,0.581337,0.6972723
					c0.0341415,0.2533045-0.0440712,0.4880295-0.2298813,0.6734142c-1.1039124,1.1020517-2.2080307,2.2037983-3.3149834,3.3026962
					c-0.2532845,0.2513828-0.5629921,0.3260031-0.8981476,0.2029552c-0.3098183-0.1138096-0.488636-0.3503618-0.5397987-0.6783886
					c-0.0013161-0.008935-0.0032425-0.017869-0.0034332-0.026803
					C35.0747147,13.3829374,35.0749168,13.3559313,35.0749168,13.3289261z"/>
				<path class="st0" d="M17.4791546,13.2378578c0.0221882-0.2041664,0.104353-0.3787889,0.2511578-0.5248833
					c1.1152611-1.1096659,2.2282925-2.2215652,3.3451748-3.3297091c0.3823586-0.3793983,1.0618801-0.2442684,1.3057327,0.2531013
					c0.1636219,0.3337126,0.0972614,0.704278-0.1667633,0.9670238c-1.0815239,1.0768738-2.1638584,2.1530371-3.2411175,3.2341747
					c-0.2715206,0.2725868-0.5806389,0.3802032-0.9463806,0.2500553c-0.3541927-0.126195-0.5549965-0.4466076-0.5502357-0.8320971
					C17.4775333,13.2496347,17.478344,13.2437468,17.4791546,13.2378578z"/>
				<path class="st0" d="M8.9381046,10.064599c0,0.5249844-0.0022287,1.0499697,0.0007095,1.574954
					c0.0021267,0.3757429-0.152072,0.6634579-0.4928913,0.8247871c-0.5123439,0.2424421-1.0955057-0.0868034-1.1833444-0.6668148
					c-0.0120564-0.0795956-0.0100303-0.1618299-0.0101314-0.2428474c-0.0003042-1.0431671-0.0008106-2.0863342,0.0011144-3.1295023
					c0.0007091-0.3792963,0.2389989-0.6979828,0.5989666-0.8121982c0.3354497-0.1063981,0.7056499,0.0178614,0.9252982,0.3159451
					c0.0982742,0.1335049,0.1539965,0.2869091,0.1549082,0.4528008c0.0030403,0.5609245,0.0011148,1.1219511,0.0011148,1.6828756
					C8.9352674,10.064599,8.9366865,10.064599,8.9381046,10.064599z"/>
				<path class="st0" d="M32.0398598,7.7215075C31.5636864,7.721406,31.172718,7.3311443,31.169981,6.8531585
					c-0.0031395-0.5400033,0.4663486-0.8933096,0.8851795-0.8824463c0.4044418,0.0105586,0.8730202,0.3523927,0.8600502,0.9093575
					C32.9044724,7.3354015,32.4858437,7.7471933,32.0398598,7.7215075z"/>
				<path class="st0" d="M6.1194558,12.5423117c-0.4906626-0.0167513-0.8562026-0.4015303-0.8376527-0.8817434
					c0.0167074-0.430769,0.4201388-0.8116903,0.8439436-0.7968674c0.4786978,0.0166492,0.8557873,0.4039669,0.84059,0.8634682
					C6.9517479,12.1709337,6.5505457,12.5570326,6.1194558,12.5423117z"/>
				<path class="st0" d="M48.2098351,12.5229206c-0.4697914,0.0214214-0.8530617-0.4087458-0.8491096-0.8437729
					c0.0040512-0.4497547,0.3947182-0.8283405,0.8571129-0.8252954c0.4561157,0.003046,0.828949,0.3810225,0.8258095,0.8369637
					C49.0404053,12.1561117,48.6710129,12.5247478,48.2098351,12.5229206z"/>
				<path class="st0" d="M18.2963505,9.8778944c-0.001812-0.4588919,0.3779011-0.8418436,0.8365479-0.8434677
					c0.4661446-0.0017262,0.8465786,0.375946,0.846487,0.8403206c-0.0001125,0.4528008-0.3836861,0.8330107-0.8403072,0.8331127
					C18.6809387,10.70786,18.2982769,10.3311014,18.2963505,9.8778944z"/>
				<path class="st0" d="M29.8685055,6.5968156c0.0051765,0.4600091-0.3678703,0.8491535-0.8190193,0.8541284
					c-0.4585457,0.0050759-0.8528595-0.3743219-0.8574181-0.8248892c-0.0047626-0.4678264,0.366148-0.848443,0.8310757-0.8528085
					C29.483717,5.7688737,29.8633385,6.1387358,29.8685055,6.5968156z"/>
				<path class="st0" d="M36.7264328,9.055232c0.4496269,0.0110731,0.8242874,0.3486433,0.8429298,0.8130178
					c0.0189438,0.4718866-0.3606796,0.8621416-0.8224678,0.8680372c-0.4619904,0.005888-0.8464737-0.3642788-0.8561897-0.8243818
					C35.8811722,9.4575815,36.265564,9.0634623,36.7264328,9.055232z"/>
				<path class="st0" d="M41.9007263,6.6117396c-0.0012169,0.4649839-0.3801308,0.8411331-0.8453636,0.8393059
					c-0.4545822-0.0019364-0.8321915-0.3857002-0.8294449-0.8430624c0.0027275-0.4603133,0.3799286-0.8362598,0.8373489-0.8347368
					C41.5312347,5.7748709,41.9020424,6.1461468,41.9007263,6.6117396z"/>
				<path class="st0" d="M8.9343557,6.6077805C8.9360781,7.059464,8.5555439,7.4490147,8.1107769,7.4509439
					C7.64291,7.4529743,7.2533684,7.0642357,7.2529535,6.5949883C7.2525482,6.1652336,7.6451387,5.7746677,8.0789642,5.7732463
					C8.5568609,5.7716217,8.9326334,6.1382279,8.9343557,6.6077805z"/>
				<path class="st0" d="M15.8941021,8.5441628c-0.6102123-0.1557388-0.8538723-0.8686533-0.4496307-1.3604321
					c0.2135696-0.2597008,0.587822-0.3602099,0.9152679-0.2455888c0.3342342,0.1170511,0.5539837,0.4259982,0.5660496,0.7651925
					c0.0171127,0.4814305-0.436367,0.9418454-0.9825497,0.846209c-0.0111446-0.001936-0.0224819-0.0021315-0.0337381-0.0031471
					C15.9043341,8.545577,15.8992691,8.5448732,15.8941021,8.5441628z"/>
				<path class="st0" d="M64.8517303,8.2077103c-0.4149857-0.1240711-0.6809311-0.4720907-0.656311-0.8592048
					c0.0272522-0.4300594,0.3537827-0.7678323,0.7925873-0.7982898c0.3442535-0.0239668,0.7639008,0.200613,0.8686523,0.6480327
					c0.0955353,0.4081302-0.153595,0.8509812-0.5631027,0.9841819c-0.1182327,0.0384779-0.237175,0.0530977-0.3601685,0.0393915
					c-0.0052719-0.0007105-0.0105362-0.001421-0.0157089-0.0021391c-0.0064774-0.0015154-0.0128632-0.0029373-0.0193481-0.0044603
					C64.8849564,8.1992836,64.8687515,8.2012119,64.8517303,8.2077103z"/>
				<path class="st0" d="M57.1064949,10.1577911c-0.0406265,0.42945-0.4495163,0.7565699-0.8582268,0.7417479
					c-0.4302788-0.0155334-0.7704926-0.3404131-0.8134499-0.7843876c-0.0413361-0.4259911,0.2988777-0.828639,0.7523575-0.8906708
					c0.3968582-0.0543156,0.8231735,0.2558432,0.9028053,0.653718c0.0173264,0.0868044,0.0323219,0.1724911,0.0205688,0.2609196
					C57.10923,10.1453104,57.1078224,10.1516056,57.1064949,10.1577911z"/>
				<path class="st0" d="M73.0531769,7.3599777c0.0019226,0.4570646-0.3691864,0.8295593-0.8261185,0.8336201
					c-0.4941025,0.004467-0.8419113-0.3889413-0.8502121-0.8346353C71.3684311,6.9087,71.7588882,6.5221877,72.2112579,6.5202661
					C72.6815567,6.5182352,73.0511475,6.8868718,73.0531769,7.3599777z"/>
				<path class="st0" d="M12.0024395,12.5420074c-0.4790115-0.0044746-0.8486042-0.3817339-0.8438425-0.8613434
					c0.004468-0.4380732,0.3940096-0.8303652,0.8355341-0.8157454c0.4991827,0.0165482,0.8438425,0.3868093,0.8433361,0.8519964
					C12.8369608,12.1598606,12.4416437,12.5460682,12.0024395,12.5420074z"/>
				<path class="st0" d="M64.8517303,8.2077103c0.0170212-0.0064983,0.033226-0.0084267,0.0466003,0.0075121
					C64.8811111,8.2232428,64.8654175,8.2216187,64.8517303,8.2077103z"/>
				<path class="st0" d="M33.0344582,7.8281083c-0.0016212,0.0291309-0.0016212,0.0291309-0.0240097,0.0179629
					C33.0184593,7.8400884,33.0264549,7.8340983,33.0344582,7.8281083z"/>
				<path class="st0" d="M73.6922607,11.6718378c-0.0003052-0.0096445-0.0005035-0.0191879-0.0008087-0.0288324
					C73.7037125,11.6523457,73.7038116,11.6618881,73.6922607,11.6718378z"/>
				<path class="st0" d="M60.6066818,5.7685761c-0.006279-0.0003047-0.0124626-0.0006089-0.0187302-0.0009136
					C60.5942192,5.7679672,60.6004028,5.7682714,60.6066818,5.7685761z"/>
				<path class="st0" d="M15.8941021,8.5441628c0.005167,0.0007105,0.010232,0.0014143,0.015399,0.0022335
					C15.9043341,8.545577,15.8992691,8.5448732,15.8941021,8.5441628z"/>
				<path class="st0" d="M57.1064949,10.1577911c0.0013275-0.0061855,0.0027351-0.0124807,0.004055-0.0186729
					C57.10923,10.1453104,57.1078224,10.1516056,57.1064949,10.1577911z"/>
				<path class="st0" d="M64.9176788,8.2196827c0.0051727,0.0007181,0.010437,0.0014286,0.0157089,0.0021391
					C64.9281158,8.2211113,64.9228516,8.2204008,64.9176788,8.2196827z"/>
				<path class="st0" d="M34.8046227,10.770196c-0.0088272,0.0110664-0.0138931,0.0076141-0.0168304-0.0041628
					C34.7933655,10.7674551,34.7990379,10.768775,34.8046227,10.770196z"/>
				<path class="st0" d="M57.2681923,7.8955212c0.002636,0.0056853,0.0052681,0.0114651,0.0078125,0.0172591
					C57.2734604,7.9069862,57.2708282,7.9012065,57.2681923,7.8955212z"/>
				<path class="st0" d="M14.1868639,5.7722311c-0.0056629-0.0005078-0.0112457-0.0011168-0.0168076-0.0017262
					C14.1756182,5.7711143,14.181201,5.7717233,14.1868639,5.7722311z"/>
				<path class="st0" d="M56.9142036,5.7670531c-0.0058784,0.0011168-0.0118561,0.0022335-0.0177307,0.0033503
					c0.000618-0.0035601,0.0012169-0.0070052,0.0018234-0.010457C56.9035645,5.7622814,56.9089355,5.7646165,56.9142036,5.7670531z"
					/>
				<path class="st0" d="M57.0236206,5.7674594c-0.006279-0.0008121-0.0125618-0.0016317-0.0187416-0.0024366
					C57.0110588,5.7658277,57.0173416,5.7666473,57.0236206,5.7674594z"/>
				<path class="st0" d="M73.6915512,11.6042223c-0.0003052-0.0050764-0.0006104-0.0101528-0.0009079-0.0153303
					C73.6999741,11.593461,73.701889,11.5985374,73.6915512,11.6042223z"/>
				<path class="st0" d="M60.5511627,5.7648125c-0.0062828,0.0096521-0.0118446,0.008122-0.0170212-0.0011096
					C60.539814,5.7640076,60.5454903,5.7644138,60.5511627,5.7648125z"/>
				<path class="st0" d="M73.6923599,11.7125492c0-0.0051775,0-0.010457,0.0001068-0.0156412
					C73.7024918,11.7021942,73.7022934,11.7073717,73.6923599,11.7125492z"/>
				<path class="st0" d="M17.4791546,13.2378578c-0.0008106,0.0058889-0.0016212,0.0117769-0.0024319,0.0176659
					C17.4677067,13.2483149,17.4687195,13.2424269,17.4791546,13.2378578z"/>
				<path class="st0" d="M2.4599028,5.7726374C2.4546344,5.7721295,2.4493661,5.7716217,2.444006,5.7711143
					C2.4493661,5.7716217,2.4546344,5.7721295,2.4599028,5.7726374z"/>
			</g>
		</g>
	</g>
	<g>
		<g>
			<path class="st0" d="M42.1763039,2.9475906l0.4620438-2.883146h0.5520821l0.7153282,1.7241373l0.71632-1.7241373H45.17416
				l0.4610558,2.883146h-0.6638832l-0.2285461-1.7201715l-0.7202797,1.7201715h-0.2334938l-0.7202797-1.7201715l-0.22855,1.7201715
				H42.1763039z"/>
			<path class="st0" d="M47.6535759,1.2660859l0.9834557-1.2016414h0.8103104L48.2828293,1.430667l1.2555389,1.5169235h-0.8548355
				l-1.0299568-1.2799661v1.2799661h-0.6648712v-2.883146h0.6648712V1.2660859z"/>
			<path class="st0" d="M51.1293106,0.0644445l0.6124306,1.9105306l0.6124344-1.9105306h0.4570999l0.6124344,1.9105306
				l0.6124306-1.9105306h0.6905975l-0.9794998,2.883146h-0.5609856l-0.6035271-1.7509065l-0.6035309,1.7509065h-0.5609818
				l-0.9794998-2.883146H51.1293106z"/>
			<path class="st0" d="M56.6303291,1.6031799l-1.0309486-1.5387355h0.7845879l0.5787964,0.8942909l0.5778046-0.8942909h0.7845879
				l-1.0309486,1.5387355v1.3444107h-0.6638794V1.6031799z"/>
			<path class="st0" d="M59.2235222,1.2353508h1.1041641v0.5452993h-1.1041641V1.2353508z"/>
			<path class="st0" d="M63.4650459,2.7136075c-0.1681976,0.1645813-0.4185143,0.2984276-0.7727165,0.2984276
				c-0.3443069,0-0.5906639-0.1298804-0.7628212-0.2984276c-0.2809868-0.2766154-0.4145546-0.7128549-0.4145546-1.2056071
				c0-0.4967182,0.1335678-0.9379148,0.4145546-1.2105645C62.1016655,0.1288889,62.3480225,0,62.6923294,0
				c0.3542023,0,0.6045189,0.1338462,0.7727165,0.297436c0.2799988,0.2726496,0.4135666,0.7138463,0.4135666,1.2105645
				C63.8786125,2.0007527,63.7450447,2.4369922,63.4650459,2.7136075z M62.4301414,0.6781541
				c-0.211731,0.2072138-0.2424011,0.6226327-0.2424011,0.8258806c0,0.2240684,0.0395775,0.6305643,0.2424011,0.8298465
				c0.0771713,0.0733674,0.1543465,0.1080682,0.2671356,0.1080682c0.1118011,0,0.1899643-0.0347009,0.2671356-0.1080682
				c0.2028275-0.1992822,0.2414131-0.6057781,0.2414131-0.8298465c0-0.2032479-0.0296822-0.6186668-0.2414131-0.8258806
				c-0.0771713-0.0733675-0.1553345-0.1080684-0.2671356-0.1080684C62.5844879,0.5700856,62.5073128,0.6047865,62.4301414,0.6781541
				z"/>
			<path class="st0" d="M66.9110947,2.7136075c-0.16819,0.1645813-0.4185104,0.2984276-0.7727127,0.2984276
				c-0.3443069,0-0.5906677-0.1298804-0.7628174-0.2984276c-0.2809906-0.2766154-0.4145584-0.7128549-0.4145584-1.2056071
				c0-0.4967182,0.1335678-0.9379148,0.4145584-1.2105645C65.5477142,0.1288889,65.794075,0,66.138382,0
				c0.3542023,0,0.6045227,0.1338462,0.7727127,0.297436c0.2799988,0.2726496,0.4135666,0.7138463,0.4135666,1.2105645
				C67.3246613,2.0007527,67.1910934,2.4369922,66.9110947,2.7136075z M65.8761902,0.6781541
				c-0.2117233,0.2072138-0.2424011,0.6226327-0.2424011,0.8258806c0,0.2240684,0.0395813,0.6305643,0.2424011,0.8298465
				c0.077179,0.0733674,0.1543503,0.1080682,0.2671356,0.1080682c0.1118088,0,0.1899643-0.0347009,0.2671432-0.1080682
				c0.2028198-0.1992822,0.2414093-0.6057781,0.2414093-0.8298465c0-0.2032479-0.029686-0.6186668-0.2414093-0.8258806
				c-0.077179-0.0733675-0.1553345-0.1080684-0.2671432-0.1080684C66.0305405,0.5700856,65.9533691,0.6047865,65.8761902,0.6781541z
				"/>
			<path class="st0" d="M69.024437,0.6265985H68.61483v-0.562154h1.073494v2.883146h-0.663887V0.6265985z"/>
			<path class="st0" d="M73.0690689,0.0733675L72.3102112,1.019214c0.0860748-0.0297437,0.1761093-0.0465984,0.3017654-0.0465984
				c0.362114,0,0.5867081,0.1467351,0.7113724,0.2766154c0.1038818,0.107077,0.2503128,0.3152822,0.2503128,0.6652652
				c0,0.2766155-0.0860748,0.5700856-0.2720795,0.7733337c-0.2631836,0.2855384-0.6292572,0.3242052-0.8835297,0.3242052
				c-0.263176,0-0.6470642-0.0257778-0.9320068-0.3370941c-0.1899643-0.203248-0.2503204-0.4451625-0.2503204-0.6999661
				c0-0.4580514,0.2156906-0.7822567,0.4620514-1.1064619L72.3567123,0L73.0690689,0.0733675z M72.740593,2.3378468
				c0.0781631-0.0733674,0.1513748-0.1943247,0.1513748-0.380718c0-0.168547-0.069252-0.2805812-0.1513748-0.3539488
				c-0.1068497-0.0951794-0.2325058-0.1209573-0.3443069-0.1209573c-0.1296082,0-0.2503128,0.0297436-0.3492584,0.1249231
				c-0.0563889,0.052547-0.1474152,0.168547-0.1474152,0.3678292c0,0.1338462,0.0395737,0.2587692,0.1474152,0.3589061
				c0.081131,0.0773332,0.2028275,0.133846,0.3492584,0.133846C72.5684433,2.4677272,72.6802444,2.3943596,72.740593,2.3378468z"/>
		</g>
	</g>
</g>
</svg>
